<svg id="f6c0270a-1983-4233-87f4-b40c9a37d685" data-name="Layer 1" xmlns="http://www.w3.org/2000/svg" viewBox="0 0 1080 1080"><defs><style>.e975af5d-1562-46b3-8179-38a9bf8a8fe2{fill:#8bc22b;}.aa79aa86-4243-4903-b6d5-23366bb770ca{fill:#fff;}.ebe55994-ec71-4e06-85b7-6e90821dbafc{fill:#fbc044;}</style></defs><circle class="e975af5d-1562-46b3-8179-38a9bf8a8fe2" cx="540" cy="540" r="535.18"/><path class="aa79aa86-4243-4903-b6d5-23366bb770ca" d="M515.3,230.08c-27.06-50.84-90.49-129.15-180.37-82.34-89.28,46.5-34.25,181.66-26.7,199.06A304.68,304.68,0,0,1,515.3,230.08Z"/><path class="aa79aa86-4243-4903-b6d5-23366bb770ca" d="M762.06,314.26c19.91-53.18,38.22-157.21-59.49-192.84-85.59-31.2-145,73.83-161.21,106.89,2.77-.07,5.53-.21,8.32-.21A304,304,0,0,1,762.06,314.26Z"/><path class="aa79aa86-4243-4903-b6d5-23366bb770ca" d="M963.69,396.32c-27.62-86.5-146.32-69.56-182.86-62.13a303.78,303.78,0,0,1,73.95,199c0,8.85-.46,17.6-1.2,26.26C908.38,541,994.2,491.85,963.69,396.32Z"/><path class="aa79aa86-4243-4903-b6d5-23366bb770ca" d="M848.43,595.31A305.29,305.29,0,0,1,714.58,789.83c48.79,31.11,140.67,67,195.92-16.56C958.41,700.85,880.43,622.82,848.43,595.31Z"/><path class="aa79aa86-4243-4903-b6d5-23366bb770ca" d="M452.49,822.38C459,880,488.72,972.74,587.76,963.68c85.64-7.82,98.36-115.42,100-158.45a304.88,304.88,0,0,1-235.28,17.15Z"/><path class="aa79aa86-4243-4903-b6d5-23366bb770ca" d="M259.75,628.19c-41.43,38.09-106.58,124.3-34,200.6,60.91,64,156.68,2.29,189.08-21.91A305.92,305.92,0,0,1,259.75,628.19Z"/><path class="aa79aa86-4243-4903-b6d5-23366bb770ca" d="M244.59,533.2a303.55,303.55,0,0,1,48.57-165.07c-54.91-10.37-164.62-11.32-181.91,93.47C95.35,557.92,227.62,595.72,252.47,602A305.45,305.45,0,0,1,244.59,533.2Z"/><path class="ebe55994-ec71-4e06-85b7-6e90821dbafc" d="M550.6,257.22c-151.33,0-274,122.68-274,274s122.68,274,274,274,274-122.68,274-274S701.92,257.22,550.6,257.22ZM425,399.73c3.07-6.27,10.17-11.93,16.07-15.46A43.85,43.85,0,0,1,463.84,378a39.05,39.05,0,0,1,8.73,1.07c11.79,2.87,21.78,11.42,27.31,22.12,3.28,6.36,11,30.74-4.34,25.77-3.29-1.07-6-3.36-8.82-5.39a63.84,63.84,0,0,0-44.09-11.5C435,410.94,419.08,411.84,425,399.73Zm300.26,176a175.35,175.35,0,0,1-35.64,70c-33.95,41-83,63.84-137.27,63.78-118-.12-203.26-114.36-169.69-227.48,1.05-3.52,2.42-6.94,3.64-10.4,3-8.53,8.62-12.69,17.75-10,8.26,2.43,10.72,9.48,8.11,19.65-3,11.62-6.43,23.26-7.83,35.11C393.78,605.66,467,684.89,556.66,681.79,623.59,679.47,677.59,638,697.11,574c.59-1.92.95-3.91,1.65-5.79,2.88-7.81,8-12.44,16.81-10.48C723.46,559.45,727.51,566.85,725.28,575.74Zm.11-68.26c-.74,4.75-4,9.24-9.36,6.82-2.61-1.17-4.47-3.51-6.38-5.64a65.77,65.77,0,0,0-30.46-19.07c-6.92-2-27.72-.76-30.66-9.15-2.81-8,13.27-17.1,19-19.56,10-4.29,21.77-4.82,31.91-.63,16.06,6.65,26.59,24,26.43,41.32A41.92,41.92,0,0,1,725.39,507.48Z"/></svg>