<svg id="Capa_1" enable-background="new 0 0 512 512" height="512" viewBox="0 0 512 512" width="512" xmlns="http://www.w3.org/2000/svg"><g><g><path d="m316.131 97.618h-33.94v405.1h-52.38v-405.1h-33.94c-15.69 0-23.11-19.35-11.45-29.85l60.13-54.08c6.51-5.85 16.39-5.85 22.9 0l60.13 54.08c11.66 10.5 4.24 29.85-11.45 29.85z" fill="#78d0b1"/><path d="m282.191 201.978v59.48c-10.39 9.22-16.94 22.66-16.94 37.6v139.16h-35.44v-195.58c12.39-18.76 30.76-33.22 52.38-40.66z" fill="#57988b"/><path d="m500.111 247.808-54.08 60.13c-10.49 11.66-29.84 4.24-29.84-11.45v-35.31h-83.74c-27.72 0-50.26 22.55-50.26 50.26v139.16h-52.38v-139.16c0-5.81.49-11.5 1.42-17.05 8.14-48.51 50.43-85.58 101.22-85.58h83.74v-32.58c0-15.69 19.35-23.11 29.84-11.45l54.08 60.14c5.85 6.5 5.85 16.38 0 22.89z" fill="#dd636e"/><path d="m282.191 336.078v114.52h-36.74v-60.12c0-14.31-6.01-27.24-15.64-36.4v-42.64c0-5.81.49-11.5 1.42-17.05 21.2 7.97 39.08 22.76 50.96 41.69z" fill="#c10a54"/><path d="m179.555 306.089h-83.74v-32.579c0-15.689-19.351-23.111-29.842-11.446l-54.082 60.132c-5.853 6.508-5.853 16.383 0 22.891l54.082 60.132c10.492 11.666 29.842 4.244 29.842-11.446v-35.31h83.74c27.713 0 50.259 22.546 50.259 50.259v93.991h52.375v-93.991c0-56.591-46.041-102.633-102.634-102.633z" fill="#f6e266"/></g><path d="m505.671 219.906-54.078-60.137c-6.875-7.641-17.517-10.199-27.114-6.517-9.598 3.681-15.799 12.703-15.799 22.982v25.078h-76.235c-15.155 0-29.605 3.077-42.758 8.639v-104.823h26.438c10.277 0 19.297-6.199 22.98-15.793 3.685-9.599 1.129-20.247-6.516-27.131l-60.128-54.078c-9.385-8.434-23.54-8.433-32.926.002l-60.13 54.08c-7.641 6.88-10.197 17.528-6.512 27.127 3.683 9.594 12.703 15.793 22.98 15.793h26.438v53.657c0 4.142 3.358 7.5 7.5 7.5s7.5-3.358 7.5-7.5v-61.156c0-4.142-3.358-7.5-7.5-7.5h-33.938c-6.132 0-8.421-4.723-8.977-6.17-.557-1.449-2.017-6.497 2.542-10.602l60.124-54.074c3.67-3.298 9.204-3.298 12.872-.002l60.123 54.073c4.563 4.109 3.102 9.157 2.546 10.606-.556 1.447-2.845 6.17-8.977 6.17h-33.938c-4.142 0-7.5 3.358-7.5 7.5v120.08c-15.372 9.506-28.242 22.683-37.378 38.301v-67.228c0-4.142-3.358-7.5-7.5-7.5s-7.5 3.358-7.5 7.5v118.441c-13.151-5.561-27.599-8.638-42.752-8.638h-76.236v-25.078c0-10.28-6.202-19.301-15.8-22.982s-20.242-1.121-27.116 6.523l-54.076 60.128c-8.439 9.383-8.44 23.536 0 32.92l54.078 60.128c6.875 7.644 17.517 10.203 27.116 6.523 9.599-3.681 15.8-12.702 15.8-22.982v-27.808h76.236c23.576 0 42.756 19.18 42.756 42.756v93.985c0 4.142 3.358 7.5 7.5 7.5h52.372c4.142 0 7.5-3.358 7.5-7.5v-93.96c0-.007.001-.013.001-.019v-97.284c0-23.577 19.181-42.758 42.758-42.758h76.235v27.808c0 10.279 6.201 19.3 15.799 22.982 9.596 3.682 20.24 1.124 27.116-6.518l13.289-14.779c2.769-3.08 2.517-7.822-.562-10.591-3.08-2.769-7.822-2.518-10.591.562l-13.288 14.778c-4.1 4.558-9.143 3.101-10.591 2.544-1.448-.555-6.172-2.844-6.172-8.978v-35.308c0-4.142-3.358-7.5-7.5-7.5h-83.735c-31.847 0-57.757 25.91-57.757 57.757v41.851c-9.136-15.619-22.005-28.798-37.378-38.304v-3.548c0-52.452 42.677-95.125 95.134-95.125h83.735c4.142 0 7.5-3.358 7.5-7.5v-32.578c0-6.134 4.724-8.423 6.172-8.978 1.448-.557 6.49-2.013 10.59 2.543l54.079 60.139c3.295 3.661 3.294 9.189-.001 12.856l-20.779 23.099c-2.77 3.079-2.519 7.821.561 10.591 3.079 2.77 7.822 2.519 10.591-.56l20.781-23.102c8.435-9.386 8.434-23.537-.004-32.913zm-230.984 188.808v86.486h-37.373v-86.486c0-31.846-25.909-57.755-57.755-57.755h-83.735c-4.142 0-7.5 3.358-7.5 7.5v35.307c0 6.134-4.724 8.422-6.172 8.978-1.448.555-6.492 2.012-10.593-2.548l-54.078-60.128c-3.297-3.666-3.297-9.195 0-12.861l54.078-60.128c4.103-4.56 9.145-3.103 10.593-2.548 1.448.556 6.172 2.844 6.172 8.978v32.577c0 4.142 3.358 7.5 7.5 7.5h83.735c52.454 0 95.128 42.674 95.128 95.128z"/></g></svg>