<?xml version="1.0" encoding="utf-8"?>
<!-- Generator: Adobe Illustrator 25.2.0, SVG Export Plug-In . SVG Version: 6.00 Build 0)  -->
<svg version="1.1" id="f5cb449a-c272-4b48-be95-dc9d4e371f6e"
	 xmlns="http://www.w3.org/2000/svg" xmlns:xlink="http://www.w3.org/1999/xlink" x="0px" y="0px" viewBox="0 0 594.2 101.8"
	 xml:space="preserve">
<style type="text/css">
	.st0{fill:#81BA26;}
	.st1{fill:#E7393C;}
	.st2{fill:#F39702;}
	.st3{fill:#F39701;}
	.st4{fill:#81BB27;}
</style>
<g>
	<g>
		<path class="st0" d="M557.4,2.6c3,17.6-2.2,31.8-16.5,42.7c0.5,0,0.8,0,1.1,0c23.4-0.6,43.2,14.5,48.6,37.2c0.5,2,0.7,4.1,1.1,6.1
			c0.1,0.8-0.2,1.1-0.8,1.5c-6.7,4.5-14.1,7.2-22.1,7.9c-15.1,1.4-28.2-3.2-38.9-13.9c-10.4-10.4-15-23.1-13.9-37.7
			c1.6-21.8,17.8-39.7,39.3-43.6C555.9,2.8,556.5,2.8,557.4,2.6z"/>
		<path class="st1" d="M196.3,39.3c2.7-2.5,5.7-4.1,9.2-4.9c8.4-1.7,16.9,1.6,21.2,8.2c2.3,3.6,3.3,7.6,3.3,11.9
			c-0.2,9.5-0.4,19-0.6,28.5c0,1.5,0,3.1-0.3,4.5c-0.8,4.2-4.5,6.9-8.6,6.5c-3.8-0.4-7-4-7-8.1c0.1-9.1,0.4-18.2,0.6-27.2
			c0-1.6,0.1-3.3-0.2-4.9c-0.6-3-2.8-4.7-5.5-4.5c-3.2,0.3-5.8,2.6-5.9,5.6c-0.3,5.4-0.3,10.9-0.5,16.3c-0.1,5-0.1,10-0.5,15
			c-0.5,5.7-6.6,8.9-11.4,6.2c-2.9-1.6-4.2-4.3-4.1-7.5c0.1-8.4,0.4-16.8,0.6-25.2c0-2,0.2-4.1-0.1-6.1c-0.4-3.1-3-5.1-6-5
			c-2.8,0.1-5.3,2.2-5.8,5.2c-0.1,0.7-0.2,1.4-0.2,2.1c-0.2,9.4-0.4,18.7-0.7,28.1c-0.1,4.1-2.2,7.2-5.6,8.3
			c-5.1,1.7-10.4-2.2-10.4-7.9c0-6.1,0.3-12.2,0.4-18.2c0.2-8.2,0.4-16.3,0.5-24.5c0.1-3.9,2.1-7,5.3-8.2c3.1-1.1,5.9-0.5,8.3,1.7
			c0.4,0.4,0.7,0.6,1.3,0.3C181.8,31.7,189.5,32.9,196.3,39.3z"/>
		<path class="st2" d="M311.6,90c-2.2,2.6-5.2,3.7-8.8,2.8c-3.5-0.8-5.9-3.6-6.3-7.2c-0.1-0.6-0.1-1.2-0.1-1.8c0-21.4,0-42.8,0-64.2
			c0-2.6,0.6-5,2.6-6.8c2.6-2.4,5.6-3,8.9-1.7c3.4,1.3,5.4,3.8,5.4,7.5c0.1,5.5,0,11,0,16.6c0,0.4,0,0.8,0,1.4
			c0.3-0.1,0.4-0.2,0.6-0.2c6.7-4.3,13.7-4.1,20.8-1.5c12.8,4.7,20.5,17.2,19.3,30.8c-0.8,8.7-4.1,16.2-10.9,21.8
			c-4.5,3.8-9.7,6.1-15.7,5.8c-3-0.1-6.1-0.2-9.1-0.8C316.2,92,314.1,90.8,311.6,90z M337.2,63.4c0-4.8-1.8-8.9-5.2-11.8
			c-4.2-3.5-10.1-3.3-14.1,0.4c-5.9,5.5-6.5,15.1-1.4,21.4c4.6,5.6,11.9,5.8,16.8,0.5C336,71,337.1,67.4,337.2,63.4z"/>
		<path class="st1" d="M446.2,92.5c-7.3,2.9-14.7,2.2-21.6-0.5c-6.8-2.6-11.6-7.9-14.3-14.8c-4.3-11.1-3.8-21.9,3.6-31.5
			c7.4-9.6,17.4-13.5,29.5-11.2c3,0.6,5.5,2.2,7.8,4c0.3,0.3,0.7,0.5,1.2,0.9c0.3-2.2,0.6-4.3,0.9-6.3c0.6-3.8,1.1-7.6,1.7-11.4
			c0.7-4.5,5.2-7.5,9.8-6.8c4.6,0.8,7.6,5,6.9,9.7c-2.2,14.9-4.4,29.9-6.7,44.8c-1,6.7-2,13.3-3,20c-0.6,3.8-3,6.3-6.4,7.1
			c-3.6,0.8-7.1-0.7-9.2-3.9C446.4,92.6,446.3,92.5,446.2,92.5z M449.1,63.6c0.1-3.6-1.2-6.8-3.5-9.6c-3.3-4-8.9-5-13.4-2.5
			c-8.2,4.6-10.1,16.7-3.8,23.7c3.5,3.8,9.2,4.6,13.5,1.8C447,73.9,449,69.2,449.1,63.6z"/>
		<path class="st1" d="M50.3,91c-6.3,4.8-13.6,6.1-21.1,5.3c-6.6-0.6-12.3-4-16.6-9.2C5,77.8,2.2,67.3,6.3,55.8
			c4.1-11.4,12.5-18,24.5-19.7c3.4-0.5,6.7,0.3,9.8,1.7c0.4,0.2,0.7,0.3,1.1,0.5c0,0,0.1,0,0.3,0c-0.2-1.7-0.4-3.4-0.6-5
			c-0.5-4.1-1.1-8.2-1.5-12.2c-0.5-4.7,2.8-8.9,7.4-9.5c4.7-0.6,8.8,2.5,9.4,7.3c1,7.6,1.9,15.1,2.9,22.7c1.1,8.6,2.2,17.2,3.2,25.8
			c0.7,5.6,1.4,11.2,2.1,16.8c0.4,3.7-1.3,6.9-4.4,8.5c-3.2,1.7-7,1.2-9.7-1.2C50.6,91.2,50.4,91.1,50.3,91z M33.7,80.7
			c3.6,0,6.3-1.1,8.4-3.4c6.4-6.8,4.7-18.7-3.3-23.6c-4.1-2.5-9.4-1.8-12.8,1.5c-6.2,6.1-5.7,17,1,22.7C29,79.6,31.4,80.8,33.7,80.7
			z"/>
		<path class="st3" d="M135.5,40.1c0.4-0.8,0.7-1.5,1.2-2.2c1.9-2.8,5.4-4.1,8.6-3.3c3.3,0.9,5.5,3.7,5.9,7.5
			c0.8,9.4,1.5,18.8,2.2,28.2c0.4,5.2,0.9,10.4,1.2,15.7c0.2,3.2-1.2,5.7-4.1,7.2c-2.9,1.5-5.8,1.3-8.5-0.6c-0.6-0.4-1.1-1-1.7-1.5
			c-6,4.8-13,5.4-20.1,4.8c-7-0.6-12.8-4.3-17-10c-7.4-10.1-9.5-21.1-4.1-32.6c4.8-10.1,13-15.7,24.3-16.6c3.8-0.3,7.3,0.9,10.6,2.7
			c0.4,0.2,0.8,0.4,1.2,0.6C135.3,40.1,135.3,40.1,135.5,40.1z M112.2,64.6c0.1,7,2.1,11.7,6.7,14.9c4.2,2.9,10.1,2.5,13.8-1
			c7-6.5,6.4-18.5-1.2-24.3c-5-3.8-11.6-3.1-15.6,1.7C113.5,58.8,112.2,62.2,112.2,64.6z"/>
		<path class="st4" d="M271.5,37.8c0.2-0.4,0.3-0.7,0.4-0.9c1.4-3.5,4.8-5.5,8.4-5.1c3.6,0.4,6.3,3.1,6.8,6.8
			c0.8,6.1,1.4,12.3,2.1,18.5c0.8,6.8,1.5,13.6,2.3,20.4c0.2,2,0.5,4,0.6,6.1c0.1,3.3-1.9,6.1-4.9,7.3c-3.2,1.2-6.5,0.5-8.8-2
			c-0.1-0.1-0.2-0.3-0.3-0.4c-0.2,0.1-0.4,0.1-0.4,0.2c-2.7,2.6-6.1,3.8-9.6,4.5c-3.6,0.7-7.2,1.4-10.8,0.8
			c-7.1-1.1-12.9-4.5-17.2-10.2c-6.8-9.2-9.2-19.3-5.1-30.2c4.2-11.1,12.6-17.5,24.6-18.9c3.8-0.4,7.3,0.8,10.6,2.5
			C270.6,37.4,271,37.6,271.5,37.8z M274.5,64.3c-0.1-4.6-2-9.2-6.5-12.5c-4.7-3.4-11-2.7-14.9,1.6c-6.3,6.9-5.1,18.3,2.4,23.8
			c4.9,3.5,11.3,2.8,15.2-1.8C273.3,72.5,274.6,69.1,274.5,64.3z"/>
		<path class="st3" d="M492.8,37.5c5.6,0.5,11.4,1.9,16.3,5.5c3.9,2.9,4.8,6.9,2.5,11c-1.7,3.1-4.9,4.5-8.3,3.4
			c-1.7-0.6-3.3-1.4-4.9-2.3c-2.2-1.2-4.5-2.2-7-2c-1,0.1-2.1,0.4-3,0.8c-1.2,0.6-1.3,1.7-0.1,2.4c2,1,4.1,1.8,6.1,2.8
			c4.1,2,8.2,3.9,12.3,5.9c5.1,2.6,7.2,7.2,7.4,12.7c0.3,6.2-2.7,10.9-7.1,14.9c-3.4,3-7.4,4.3-11.8,4.8c-6.9,0.7-13.5-0.5-19.4-4.2
			c-1.8-1.1-3.5-2.5-5-4.1c-2.1-2.3-2.6-5.1-1.4-8.1c1.1-2.8,3-4.7,6.1-5.1c2.1-0.3,4,0.3,5.7,1.4c1.6,1,3.2,2.2,4.8,3.1
			c2.4,1.3,5,2,7.8,1.4c0.2,0,0.4-0.1,0.6-0.2c1.2-0.5,2.6-1,2.7-2.5c0.2-1.5-1.1-2-2.1-2.6c-1.7-0.9-3.5-1.6-5.2-2.4
			c-3.2-1.4-6.4-2.6-9.6-4.1c-3.8-1.8-6.9-4.4-8.6-8.4c-1.3-3.1-1.6-6.3-0.6-9.6c0,0,0-0.1,0-0.1c1.8-8.7,8.1-12.1,15.9-14
			c0.6-0.1,1.2-0.2,1.8-0.2C490,37.6,491.2,37.6,492.8,37.5z"/>
		<path class="st4" d="M382.6,95.8c-7.6-0.1-13.5-2-18.9-5.3c-4.3-2.6-6.3-6.8-7.3-11.6c-0.8-4.3-0.3-8.5,0.3-12.8
			c1-7.4,2-14.7,3-22.1c0.1-1.1,0.3-2.1,0.5-3.2c0.9-3.8,4.4-6.1,8.5-5.8c3.6,0.3,6.8,3.4,6.8,7.1c0,2.7-0.5,5.4-0.8,8.1
			c-0.9,7.2-2,14.5-2.9,21.7c-0.1,1.1,0,2.3,0.2,3.5c0.5,2.7,2,4.4,4.8,5c2.3,0.5,4.6,0.9,7,0.5c1.4-0.2,2.5-1,2.9-2.3
			c0.7-2.5,1.4-4.9,1.7-7.4c1.2-8.3,2.3-16.7,3.4-25.1c0.6-4.2,4.2-7,8.4-6.7c4.1,0.3,7.4,3.7,7.2,7.8c-0.2,3.3-0.8,6.7-1.2,10
			c-0.9,6.5-1.7,13.1-2.7,19.6c-0.6,4.4-2.3,8.4-5,11.9c-2.6,3.4-5.8,5.5-10.1,6.1C386.2,95.2,383.8,95.6,382.6,95.8z"/>
		<path class="st4" d="M82.6,36.2c3-2.8,6.6-3.5,10.5-3.4c5.2,0.1,9.1,4.9,8.2,10c-0.3,2-1.3,3.7-3,4.7c-1.8,1-3.6,1.9-5.5,2.5
			C88,51.5,85,55.3,85,60.2c0,3.2,0.2,6.3,0.3,9.5c0.2,4.9,0.4,9.8,0.5,14.7c0.1,5.6-5,9.8-10.2,8.5c-3.6-0.9-6.1-4-6.3-7.7
			C69,78.1,68.8,71.1,68.5,64c-0.3-7-0.5-14.1-0.8-21.1c-0.2-3.9,1.2-7,4.8-8.6c3.6-1.7,6.9-0.9,9.8,1.8
			C82.3,36.1,82.4,36.1,82.6,36.2z"/>
	</g>
</g>
</svg>
