<svg id="aa538bb7-9119-4e97-970f-76ee7a0fa2f5" data-name="Layer 1" xmlns="http://www.w3.org/2000/svg" viewBox="0 0 259.69 60.95"><path d="M244.48,0c1.33,7.77-1,14.05-7.28,18.88h1.35A21.23,21.23,0,0,1,259.39,36.2c.11.59.17,1.19.28,1.78a.65.65,0,0,1-.35.73,21.34,21.34,0,0,1-32.68-12.93A21.34,21.34,0,0,1,243.26.22Z" style="fill:#81ba26"/><path d="M84.78,16.22A8.18,8.18,0,0,1,89.4,14c5.24-.66,10,2.37,10.23,8.5.11,2.85-.08,5.71-.14,8.57,0,1.91-.09,3.82-.14,5.72a3.68,3.68,0,0,1-2.58,3.52,3.52,3.52,0,0,1-4.43-3.37c0-2.56.09-5.12.15-7.68,0-1.86.1-3.71.14-5.56a4.64,4.64,0,0,0-.13-1.05A2.31,2.31,0,0,0,90,20.69a2.72,2.72,0,0,0-2.59,2.44c-.12,2.41-.15,4.83-.22,7.25-.07,2.21-.06,4.42-.23,6.61a3.3,3.3,0,0,1-2.24,2.92,3.12,3.12,0,0,1-3.32-.57,3.65,3.65,0,0,1-1.31-3c.07-3.73.18-7.45.26-11.18a16.45,16.45,0,0,0-.06-2.63,2.56,2.56,0,0,0-2.6-2.2,2.67,2.67,0,0,0-2.56,2.2,6.42,6.42,0,0,0-.11,1.16q-.15,6.17-.29,12.34a3.66,3.66,0,0,1-2.83,3.69,3.53,3.53,0,0,1-4.2-3.61c0-2.6.12-5.19.18-7.79l.24-11a3.85,3.85,0,0,1,1.63-3.28,3.47,3.47,0,0,1,4.39.35c.19.17.32.33.62.15a8.29,8.29,0,0,1,9.85,1.54S84.7,16.16,84.78,16.22Z" style="fill:#e7393c"/><path d="M136.58,15l.29-.13c2.91-1.88,6-1.79,9.11-.68a13.07,13.07,0,0,1,8.58,13.61,13.61,13.61,0,0,1-4.8,9.64A10,10,0,0,1,142.81,40a28.16,28.16,0,0,1-4-.34,19.9,19.9,0,0,1-2.92-1l-.06-.24a.9.9,0,0,1-.13.28,3.68,3.68,0,0,1-4.1,1.08,3.47,3.47,0,0,1-2.5-3.22c0-.21,0-.42,0-.64q0-14.16,0-28.33a3.91,3.91,0,0,1,1.18-3.06,3.55,3.55,0,0,1,3.94-.73A3.47,3.47,0,0,1,136.56,7c.06,2.44,0,4.87,0,7.31Zm-.17,11.83a6.77,6.77,0,0,0,1.48,4.42,4.73,4.73,0,0,0,6.76.94,7,7,0,0,0,.11-10.49,4.66,4.66,0,0,0-6.23.16A6.57,6.57,0,0,0,136.41,26.8Z" style="fill:#f39702"/><path d="M195.31,39.69a12.84,12.84,0,0,1-9.56-.22A10.94,10.94,0,0,1,179.44,33c-1.89-4.9-1.66-9.67,1.59-13.9a12.52,12.52,0,0,1,13-4.93,7.78,7.78,0,0,1,3.46,1.77l.51.41.52-3.41c.22-1.46.41-2.93.65-4.39a3.75,3.75,0,0,1,7.39,1.31l-2.73,18.36c-.51,3.42-1,6.83-1.55,10.25a3.6,3.6,0,0,1-2.89,3.13,3.8,3.8,0,0,1-4-1.8A.46.46,0,0,0,195.31,39.69Zm1.27-12.37a6.73,6.73,0,0,0-1.83-5,4.69,4.69,0,0,0-5.62-.76A7,7,0,0,0,187.47,32a4.67,4.67,0,0,0,6,.81A6.57,6.57,0,0,0,196.58,27.32Z" style="fill:#e7393c"/><path d="M16.58,15.84c-.17-1.4-.33-2.69-.49-4s-.34-2.48-.47-3.72a3.78,3.78,0,0,1,3.25-4.19A3.65,3.65,0,0,1,23,7.17c.48,3.61.91,7.24,1.37,10.86q.72,5.68,1.43,11.39c.28,2.2.55,4.41.81,6.61a3.62,3.62,0,0,1-1.94,3.7,3.8,3.8,0,0,1-4.26-.49l-.22-.2a12.75,12.75,0,0,1-9,2.39A10.76,10.76,0,0,1,3.87,37.7,14.51,14.51,0,0,1,0,26.93,13.25,13.25,0,0,1,10.4,15,9.23,9.23,0,0,1,16.58,15.84ZM13,34.49A4.59,4.59,0,0,0,16.63,33a7,7,0,0,0-1-10.08,4.66,4.66,0,0,0-6.36.61,7,7,0,0,0,.65,9.75A4.58,4.58,0,0,0,13,34.49Z" style="fill:#e7393c"/><path d="M57.86,16.6c.2-.37.34-.71.55-1a3.49,3.49,0,0,1,6.4,1.87q.51,6.23,1,12.45c.18,2.3.39,4.61.53,6.91A3.16,3.16,0,0,1,64.53,40a3.43,3.43,0,0,1-3.76-.25,6.68,6.68,0,0,1-.73-.68c-2.63,2.1-5.77,2.42-8.9,2.13a10.54,10.54,0,0,1-7.86-4.87c-3-4.38-3.78-9.1-1.44-14a12.31,12.31,0,0,1,10.73-7.28,8.3,8.3,0,0,1,4.61,1.16ZM47.62,27.42c0,3.08.9,5.12,3,6.56a4.92,4.92,0,0,0,6.23-.56,7.2,7.2,0,0,0-.77-10.74,4.94,4.94,0,0,0-6.7.76A6.29,6.29,0,0,0,47.62,27.42Z" style="fill:#f39701"/><path d="M118.05,15.56a3.68,3.68,0,0,1,2.21-2.47,3.41,3.41,0,0,1,4.65,2.72c.39,3.06.71,6.13,1.06,9.19s.69,6,1,9a9.32,9.32,0,0,1,.07,2.47,3.09,3.09,0,0,1-2.43,2.59,3.34,3.34,0,0,1-3.53-1l-.19-.18a7.29,7.29,0,0,1-3.35,1.84,14.93,14.93,0,0,1-5.82.61,11.17,11.17,0,0,1-7.59-4.52c-3-4.05-4.06-8.53-2.23-13.32a12.39,12.39,0,0,1,10.87-8.32,8.11,8.11,0,0,1,4.68,1.09Zm1.33,11.62a6.71,6.71,0,0,0-2.85-5.41,4.93,4.93,0,0,0-6.63.68A7.2,7.2,0,0,0,111,32.91a4.93,4.93,0,0,0,6.81-.8A7,7,0,0,0,119.38,27.18Z" style="fill:#81bb27"/><path d="M225.32,34.42c0,1.72-1.3,3.65-3.13,5.31A8.9,8.9,0,0,1,217,41.87a13.31,13.31,0,0,1-8.59-1.82,10.73,10.73,0,0,1-2.24-1.83,3.24,3.24,0,0,1-.6-3.65,3.21,3.21,0,0,1,2.69-2.17,3.68,3.68,0,0,1,2.44.56c.45.28.87.6,1.31.89A5.75,5.75,0,0,0,216.32,35a1.91,1.91,0,0,0,.41-.11c.51-.22,1-.46,1.1-1.1s-.47-.86-.88-1.08c-.78-.41-1.59-.75-2.4-1.1-1.41-.61-2.85-1.16-4.23-1.84a7.07,7.07,0,0,1-3.93-4.09,5.88,5.88,0,0,1-.11-3.84l0-.05c.78-3.84,3.59-5.44,7-6.15a12.69,12.69,0,0,1,9.06,1.74,7.64,7.64,0,0,1,.83.57,3.62,3.62,0,0,1,.67,5.22,3,3,0,0,1-3.36,1,12.21,12.21,0,0,1-2.11-1,5.73,5.73,0,0,0-3.15-.92,3.79,3.79,0,0,0-1.32.34c-.58.26-.61.78-.05,1.06,1,.49,2,.87,2.93,1.32,1.68.79,3.38,1.53,5,2.43C224.31,28.86,225.31,30.72,225.32,34.42Z" style="fill:#f39701"/><path d="M167.18,41.15a15.93,15.93,0,0,1-8.39-2.35,7.15,7.15,0,0,1-3.2-5.14,17,17,0,0,1,.15-5.64c.45-3.25.88-6.5,1.33-9.75.06-.43.11-.87.2-1.3A3.4,3.4,0,0,1,161,14.35a3.3,3.3,0,0,1,3,3.14,26.07,26.07,0,0,1-.35,3.52c-.42,3.21-.87,6.4-1.28,9.6a5.26,5.26,0,0,0,.1,1.53,2.52,2.52,0,0,0,2.08,2.24,8.27,8.27,0,0,0,3.09.22A1.48,1.48,0,0,0,169,33.54a29.84,29.84,0,0,0,.76-3.34c.53-3.67,1-7.35,1.51-11A3.4,3.4,0,0,1,175,16.25a3.35,3.35,0,0,1,3.2,3.43c-.08,1.5-.34,3-.54,4.47-.38,2.87-.75,5.74-1.19,8.6a10.88,10.88,0,0,1-2.92,6.12,5.94,5.94,0,0,1-3.3,1.78Z" style="fill:#81bb27"/><path d="M34.5,14.85a6.16,6.16,0,0,1,4.58-1.5,3.77,3.77,0,0,1,3.69,4.35,2.91,2.91,0,0,1-1.52,2.24A13.86,13.86,0,0,1,39,21a4.59,4.59,0,0,0-3.42,4.53c0,1.38.08,2.75.14,4.13.08,2.17.19,4.34.24,6.51a3.65,3.65,0,1,1-7.3.36c-.14-3.12-.26-6.24-.39-9.37s-.21-6.24-.35-9.37A3.62,3.62,0,0,1,30,14a3.7,3.7,0,0,1,4.35.78S34.42,14.8,34.5,14.85Z" style="fill:#81bb27"/><path d="M117.84,49.51c-.56,2-1.09,3.9-1.62,5.78-.17.59-.32,1.19-.51,1.78a1,1,0,0,1-1.12.76.94.94,0,0,1-1-.87q-.84-4.43-1.65-8.85c-.14-.81.07-1.19.58-1.25s.84.24,1,1.06q.56,3.45,1.12,6.9a1.07,1.07,0,0,0,.17.48c0-.15.11-.3.15-.46.69-2.4,1.37-4.81,2.08-7.21a1.3,1.3,0,0,1,.59-.73c.46-.22.86.07,1,.67q1,3.48,2,7a2.92,2.92,0,0,0,.33.76c.06-.34.13-.68.19-1q.52-3.18,1-6.38a2.7,2.7,0,0,1,.08-.41.78.78,0,0,1,.92-.61.67.67,0,0,1,.57.82c-.13.9-.29,1.81-.45,2.71-.39,2.12-.79,4.23-1.18,6.35-.14.75-.43,1.06-1,1.09s-1-.23-1.21-1q-1-3.39-1.9-6.77C118,49.92,117.93,49.79,117.84,49.51Z" style="fill:#84bc2b"/><path d="M177.41,57A3.15,3.15,0,0,1,172.5,56a4.94,4.94,0,0,1-.21-4.15,3.23,3.23,0,0,1,5.1-1.58c.06-.13.08-.3.17-.35.26-.15.58-.38.82-.33s.41.4.59.63c.05.07,0,.21,0,.31,0,2.17,0,4.35,0,6.52,0,2.83-2,4.41-4.68,3.79a6.64,6.64,0,0,1-1.76-.8A.7.7,0,0,1,172.3,59c.29-.41.68-.3,1-.11a11.26,11.26,0,0,0,1,.54C176.16,60.11,177.6,59,177.41,57Zm.28-3.29a12.68,12.68,0,0,0-.48-1.77,1.68,1.68,0,0,0-1.6-1.1,1.71,1.71,0,0,0-1.74,1,4,4,0,0,0,0,3.56,1.71,1.71,0,0,0,1.63,1,1.67,1.67,0,0,0,1.62-1A16.91,16.91,0,0,0,177.69,53.75Z" style="fill:#83bc2a"/><path d="M200.16,52.22l-1.41,4.48-.18.5a.82.82,0,0,1-.82.63.8.8,0,0,1-.78-.61c-.3-.84-.59-1.69-.89-2.54L194.81,51a5.15,5.15,0,0,1-.16-.56.68.68,0,0,1,.45-.85.72.72,0,0,1,.94.37,5.36,5.36,0,0,1,.3.79c.47,1.49.93,3,1.44,4.61.14-.4.24-.68.33-1,.41-1.31.82-2.62,1.24-3.93.14-.44.26-.92.86-.92s.75.49.9.95c.47,1.46.92,2.92,1.39,4.38,0,.12.08.23.16.45.25-.75.46-1.41.67-2.08.29-.92.57-1.85.86-2.77.08-.23.15-.53.32-.65a1.12,1.12,0,0,1,.84-.2.94.94,0,0,1,.43.73,3.56,3.56,0,0,1-.31,1.11c-.63,1.85-1.26,3.7-1.91,5.54a1.6,1.6,0,0,1-.49.72c-.44.33-1,.06-1.22-.58-.44-1.32-.85-2.65-1.27-4l-.3-.94Z" style="fill:#83bc2b"/><path d="M99.57,57.15a3.23,3.23,0,0,1-5.07-1.57,5.29,5.29,0,0,1-.21-3.17c.58-2.47,3.15-3.85,5.36-2.08,0-1.06,0-2.08,0-3.09a3.72,3.72,0,0,1,0-.58.71.71,0,0,1,.76-.61.67.67,0,0,1,.72.63c0,.1,0,.21,0,.32,0,3.3,0,6.6,0,9.9a1.11,1.11,0,0,1-.36.8.92.92,0,0,1-.78,0C99.82,57.61,99.71,57.34,99.57,57.15Zm-4-3.48a12.6,12.6,0,0,0,.5,1.78,1.67,1.67,0,0,0,1.65,1,1.72,1.72,0,0,0,1.65-1,3.93,3.93,0,0,0,0-3.52,1.73,1.73,0,0,0-1.64-1,1.67,1.67,0,0,0-1.68,1.06A12.48,12.48,0,0,0,95.58,53.67Z" style="fill:#83bc2a"/><path d="M19.2,53.77c0,1.11,0,2.12,0,3.12a1.17,1.17,0,0,1-.35.81c-.5.39-1.13,0-1.14-.7,0-1.65,0-3.31,0-5V47.9c0-.73.22-.95.94-1s1.7,0,2.55,0a3.33,3.33,0,0,1,3.43,3.24,3.37,3.37,0,0,1-3.22,3.57C20.69,53.81,20,53.77,19.2,53.77Zm0-1.28a23,23,0,0,0,2.38-.15,1.89,1.89,0,0,0,1.47-1.94,1.86,1.86,0,0,0-1.39-2,22.08,22.08,0,0,0-2.46-.17Z" style="fill:#83bb29"/><path d="M35.18,56.9a2.74,2.74,0,0,1-2.68.87A3.33,3.33,0,0,1,30,55.66a5,5,0,0,1-.21-3.41c.69-2.5,3.45-3.63,5.41-1.91,0-.14,0-.31.13-.37s.49-.43.71-.41.45.33.62.55,0,.3,0,.46v6.24c0,.14,0,.33,0,.42s-.41.54-.64.55-.5-.27-.72-.46S35.22,57.09,35.18,56.9Zm.16-3.21a10,10,0,0,0-.63-1.91,1.8,1.8,0,0,0-3.11-.06,4,4,0,0,0,0,3.93,1.81,1.81,0,0,0,3.12-.09A10.51,10.51,0,0,0,35.34,53.69Z" style="fill:#83bc2a"/><path d="M147.75,50.36a3.33,3.33,0,0,1,2.09-.84A2.69,2.69,0,0,1,152.68,52c.09,1.69,0,3.39,0,5.08,0,.47-.3.7-.76.71a.7.7,0,0,1-.74-.78c0-1.43,0-2.86,0-4.29a1.69,1.69,0,0,0-1.87-1.86,1.56,1.56,0,0,0-1.48,1.22,4.32,4.32,0,0,0-.1,1c0,1.31,0,2.61,0,3.92,0,.56-.26.84-.72.85s-.78-.29-.78-.86q0-5,0-10.06c0-.56.3-.88.78-.86s.72.3.72.85C147.76,48,147.75,49.15,147.75,50.36Z" style="fill:#83bc2a"/><path d="M62,50.38c0-.55.27-.87.8-.85s.64.34.64,1v6.35c0,.62-.21.93-.65,1s-.68-.22-.82-.91a2.75,2.75,0,0,1-2.18.92,3.26,3.26,0,0,1-2.9-1.9,4.9,4.9,0,0,1-.23-4A3.28,3.28,0,0,1,62,50.38Zm.11,3.27a10.39,10.39,0,0,0-.6-1.86,1.79,1.79,0,0,0-3.13,0,3.69,3.69,0,0,0,0,3.83,1.79,1.79,0,0,0,3.16-.07A10,10,0,0,0,62.14,53.65Z" style="fill:#83bc2a"/><path d="M130.42,50.25c.31-.27.52-.58.82-.7s.78.22.79.69q0,3.45,0,6.88a.65.65,0,0,1-.6.69.66.66,0,0,1-.8-.53c0-.09,0-.17-.06-.27s-.13,0-.15,0a3.13,3.13,0,0,1-4.61-.56,4.91,4.91,0,0,1,.24-5.9A3.12,3.12,0,0,1,130.42,50.25Zm-4.06,3.41a10.79,10.79,0,0,0,.58,1.88,1.8,1.8,0,0,0,3.19,0,3.86,3.86,0,0,0,0-3.66,1.72,1.72,0,0,0-1.67-1,1.65,1.65,0,0,0-1.6,1A14.82,14.82,0,0,0,126.36,53.66Z" style="fill:#83bc2a"/><path d="M78.66,54.32a2,2,0,0,0,1.57,2.09,2.94,2.94,0,0,0,2.37-.48l.22-.16c.55-.42.85-.45,1.1-.13s.18.83-.3,1.19a4.26,4.26,0,0,1-4.39.69A3.66,3.66,0,0,1,77.07,54a4.21,4.21,0,0,1,1.51-3.77A3.34,3.34,0,0,1,83.5,51a4.43,4.43,0,0,1,.73,2.29c0,.72-.19,1-.92,1H79Zm4-1.24a2,2,0,0,0-2.19-2.2,2,2,0,0,0-1.81,2.2Z" style="fill:#83bc2b"/><path d="M87.14,54.29a2,2,0,0,0,1.51,2.11,3,3,0,0,0,2.6-.59c.6-.46.88-.49,1.14-.17s.17.86-.38,1.26a4.49,4.49,0,0,1-3.76.81A3.12,3.12,0,0,1,86,55.87,5,5,0,0,1,85.84,52a3.46,3.46,0,0,1,6.69.31,6.1,6.1,0,0,1,.17,1c0,.72-.19,1-.91,1H87.14Zm0-1.22h4a2,2,0,0,0-2-2.19C87.92,50.86,87.16,51.65,87.11,53.07Z" style="fill:#83bc2b"/><path d="M186.24,53.64a14.54,14.54,0,0,1,.69-2.23,3.38,3.38,0,0,1,5.91-.31,5,5,0,0,1-.07,5.26,3.38,3.38,0,0,1-5.87-.48A14.21,14.21,0,0,1,186.24,53.64Zm1.57,0a13.07,13.07,0,0,0,.53,1.81,1.65,1.65,0,0,0,1.61,1,1.72,1.72,0,0,0,1.64-1,3.93,3.93,0,0,0,0-3.61,1.72,1.72,0,0,0-1.66-1,1.66,1.66,0,0,0-1.64,1A12.23,12.23,0,0,0,187.81,53.66Z" style="fill:#84bc2b"/><path d="M40.48,50.34a3,3,0,0,1,2.57-.78,2.77,2.77,0,0,1,2.35,2.85c0,1.52,0,3,0,4.56,0,.56-.31.87-.79.86s-.75-.32-.75-.9c0-1.46,0-2.93,0-4.39a1.69,1.69,0,0,0-2.56-1.44,1.76,1.76,0,0,0-.85,1.66c0,1.29,0,2.58,0,3.87,0,.15,0,.31,0,.47a.69.69,0,0,1-.75.72.67.67,0,0,1-.75-.71c0-2.28,0-4.55,0-6.83a.68.68,0,0,1,.67-.75C40.14,49.48,40.38,49.82,40.48,50.34Z" style="fill:#84bc2c"/><path d="M72.58,58c-.72-.26-1.46-.49-2.17-.78a1.06,1.06,0,0,1-.55-.53,1.32,1.32,0,0,1,0-.92c.17-.32.55-.26.85-.09s.47.31.71.46a2.21,2.21,0,0,0,2.08.21,1.2,1.2,0,0,0,.64-.74,1.08,1.08,0,0,0-.47-.79c-.49-.31-1-.5-1.57-.76a9.7,9.7,0,0,1-1.34-.74,1.88,1.88,0,0,1-.3-2.79,3.52,3.52,0,0,1,4.75-.11c.29.3.46.68.15,1a.72.72,0,0,1-1.05,0,2.34,2.34,0,0,0-1.7-.59,2,2,0,0,0-.7.21.66.66,0,0,0-.06,1.19,11.64,11.64,0,0,0,1.42.69,13.42,13.42,0,0,1,1.43.68A2.09,2.09,0,0,1,75,57.11a3.4,3.4,0,0,1-2.32.72Z" style="fill:#84bc2b"/><path d="M142.33,49.41A15.15,15.15,0,0,1,144,50a.67.67,0,0,1,.36,1,.66.66,0,0,1-1,.25c-1.59-.86-3,.16-3.23,1.81a3.74,3.74,0,0,0,.35,2.42,2,2,0,0,0,2.59.89c.14-.07.29-.2.43-.19s.66.06.77.23a.85.85,0,0,1-.07.8,1.85,1.85,0,0,1-.88.54,3.53,3.53,0,0,1-4.54-2.39,5.18,5.18,0,0,1,0-3.28A3.67,3.67,0,0,1,142.33,49.41Z" style="fill:#84bc2b"/><path d="M134.69,51c-1-.16-1.19-.32-1.18-.77s.24-.58,1.18-.71c0-.46,0-.93,0-1.39,0-.65.29-1,.8-1s.74.34.75.95v1.27a.63.63,0,0,0,0,.14c.48.09,1.19,0,1.12.8-.06.68-.65.56-1.16.64v5.75c0,.19,0,.44-.08.56s-.47.48-.71.47-.52-.28-.69-.5-.07-.41-.07-.62c0-1.69,0-3.38,0-5.08Z" style="fill:#86bd2f"/><path d="M48.07,51c-1-.12-1.19-.26-1.18-.75s.21-.6,1.18-.69V48.17c0-.62.26-1,.74-1s.78.31.8,1c0,.44,0,.88,0,1.32,0,0,0,0,0,.09.46.07,1.14,0,1.1.76s-.62.6-1.16.67v.56c0,1.67,0,3.35,0,5a3.17,3.17,0,0,1,0,.53.71.71,0,0,1-.78.69.7.7,0,0,1-.73-.74c0-.24,0-.49,0-.74Z" style="fill:#83bb29"/><path d="M163.64,51c-.51-.11-1.17,0-1.18-.73s.65-.63,1.18-.72c0-.52,0-1,0-1.53s.3-.83.76-.83.73.29.75.83,0,1,0,1.54c.55.06,1.19,0,1.19.71s-.65.64-1.19.72v5.87c0,.64-.24.94-.75.94s-.76-.3-.76-.92V51Z" style="fill:#83bb29"/><path d="M27.66,52c0,1.64,0,3.28,0,4.92a.84.84,0,0,1-.46.88A.76.76,0,0,1,26.13,57c0-.65,0-1.31,0-2V47.27a2.79,2.79,0,0,1,0-.58.76.76,0,0,1,1.5.05c0,.55,0,1.09,0,1.64C27.67,49.58,27.66,50.78,27.66,52Z" style="fill:#87be31"/><path d="M182.86,50.4a8.49,8.49,0,0,1,1.32-.81.82.82,0,0,1,1.15.51c.13.45-.13.82-.7,1-1.41.42-1.79.91-1.79,2.38,0,1.11,0,2.22,0,3.33,0,.7-.27,1-.79,1s-.77-.34-.77-1V50.6c0-.7.22-1,.69-1.07S182.75,49.77,182.86,50.4Z" style="fill:#85bd2d"/><path d="M161,53.69c0,1.07,0,2.15,0,3.22,0,.61-.28.93-.77.93s-.76-.32-.76-.94q0-3.23,0-6.45c0-.62.28-.93.77-.93s.76.32.77.94Z" style="fill:#87be31"/><path d="M159.29,47.76a.92.92,0,0,1,.92-.91.91.91,0,0,1,0,1.82A.91.91,0,0,1,159.29,47.76Z" style="fill:#86bd2f"/><path d="M104.6,56.1a.87.87,0,1,1-.87.87A.87.87,0,0,1,104.6,56.1Z" style="fill:#86bd2f"/><path d="M207.31,57.83a.87.87,0,1,1,.87-.88A.89.89,0,0,1,207.31,57.83Z" style="fill:#86bd2f"/></svg>