<svg id="e157883f-c859-477f-8696-87bde88402d9" data-name="f5cb449a-c272-4b48-be95-dc9d4e371f6e" xmlns="http://www.w3.org/2000/svg" viewBox="0 0 587.31 95.64"><path d="M557.4,2.6c3,17.6-2.2,31.8-16.5,42.7H542c23.4-.6,43.2,14.5,48.6,37.2.5,2,.7,4.1,1.1,6.1.1.8-.2,1.1-.8,1.5A46.47,46.47,0,0,1,568.8,98c-15.1,1.4-28.2-3.2-38.9-13.9C519.5,73.7,514.9,61,516,46.4A47.93,47.93,0,0,1,555.3,2.8,8.61,8.61,0,0,0,557.4,2.6Z" transform="translate(-4.41 -2.6)" style="fill:#81ba26"/><path d="M196.3,39.3a19.65,19.65,0,0,1,9.2-4.9c8.4-1.7,16.9,1.6,21.2,8.2A21.6,21.6,0,0,1,230,54.5L229.4,83a22.21,22.21,0,0,1-.3,4.5,7.91,7.91,0,0,1-8.6,6.5,8.21,8.21,0,0,1-7-8.1c.1-9.1.4-18.2.6-27.2a26.8,26.8,0,0,0-.2-4.9c-.6-3-2.8-4.7-5.5-4.5-3.2.3-5.8,2.6-5.9,5.6-.3,5.4-.3,10.9-.5,16.3-.1,5-.1,10-.5,15a7.72,7.72,0,0,1-11.4,6.2,7.8,7.8,0,0,1-4.1-7.5c.1-8.4.4-16.8.6-25.2a41.42,41.42,0,0,0-.1-6.1,5.7,5.7,0,0,0-6-5,6.17,6.17,0,0,0-5.8,5.2,14.92,14.92,0,0,0-.2,2.1c-.2,9.4-.4,18.7-.7,28.1-.1,4.1-2.2,7.2-5.6,8.3a8,8,0,0,1-10.4-7.9c0-6.1.3-12.2.4-18.2.2-8.2.4-16.3.5-24.5.1-3.9,2.1-7,5.3-8.2a7.73,7.73,0,0,1,8.3,1.7c.4.4.7.6,1.3.3C181.8,31.7,189.5,32.9,196.3,39.3Z" transform="translate(-4.41 -2.6)" style="fill:#e7393c"/><path d="M311.6,90a8.26,8.26,0,0,1-8.8,2.8,8.09,8.09,0,0,1-6.3-7.2,10.87,10.87,0,0,1-.1-1.8V19.6c0-2.6.6-5,2.6-6.8a8,8,0,0,1,8.9-1.7c3.4,1.3,5.4,3.8,5.4,7.5.1,5.5,0,11,0,16.6v1.4c.3-.1.4-.2.6-.2,6.7-4.3,13.7-4.1,20.8-1.5A29.66,29.66,0,0,1,354,65.7c-.8,8.7-4.1,16.2-10.9,21.8-4.5,3.8-9.7,6.1-15.7,5.8a55.94,55.94,0,0,1-9.1-.8C316.2,92,314.1,90.8,311.6,90Zm25.6-26.6A15,15,0,0,0,332,51.6a10.56,10.56,0,0,0-14.1.4,16,16,0,0,0-1.4,21.4c4.6,5.6,11.9,5.8,16.8.5A15.36,15.36,0,0,0,337.2,63.4Z" transform="translate(-4.41 -2.6)" style="fill:#f39702"/><path d="M446.2,92.5c-7.3,2.9-14.7,2.2-21.6-.5S413,84.1,410.3,77.2c-4.3-11.1-3.8-21.9,3.6-31.5s17.4-13.5,29.5-11.2a18.72,18.72,0,0,1,7.8,4c.3.3.7.5,1.2.9q.45-3.3.9-6.3c.6-3.8,1.1-7.6,1.7-11.4a8.52,8.52,0,0,1,9.8-6.8,8.41,8.41,0,0,1,6.9,9.7c-2.2,14.9-4.4,29.9-6.7,44.8-1,6.7-2,13.3-3,20a8.21,8.21,0,0,1-6.4,7.1,8.6,8.6,0,0,1-9.2-3.9A.35.35,0,0,0,446.2,92.5Zm2.9-28.9a14.24,14.24,0,0,0-3.5-9.6,10.61,10.61,0,0,0-13.4-2.5c-8.2,4.6-10.1,16.7-3.8,23.7A10.55,10.55,0,0,0,441.9,77C447,73.9,449,69.2,449.1,63.6Z" transform="translate(-4.41 -2.6)" style="fill:#e7393c"/><path d="M50.3,91c-6.3,4.8-13.6,6.1-21.1,5.3a24.33,24.33,0,0,1-16.6-9.2C5,77.8,2.2,67.3,6.3,55.8s12.5-18,24.5-19.7a17.51,17.51,0,0,1,9.8,1.7c.4.2.7.3,1.1.5H42c-.2-1.7-.4-3.4-.6-5-.5-4.1-1.1-8.2-1.5-12.2a8.61,8.61,0,0,1,7.4-9.5,8.24,8.24,0,0,1,9.4,7.3c1,7.6,1.9,15.1,2.9,22.7,1.1,8.6,2.2,17.2,3.2,25.8l2.1,16.8a8.26,8.26,0,0,1-4.4,8.5,8.48,8.48,0,0,1-9.7-1.2A2.25,2.25,0,0,0,50.3,91ZM33.7,80.7a10.65,10.65,0,0,0,8.4-3.4c6.4-6.8,4.7-18.7-3.3-23.6A10.57,10.57,0,0,0,26,55.2c-6.2,6.1-5.7,17,1,22.7A10.21,10.21,0,0,0,33.7,80.7Z" transform="translate(-4.41 -2.6)" style="fill:#e7393c"/><path d="M135.5,40.1a15.45,15.45,0,0,1,1.2-2.2,8.11,8.11,0,0,1,8.6-3.3c3.3.9,5.5,3.7,5.9,7.5.8,9.4,1.5,18.8,2.2,28.2.4,5.2.9,10.4,1.2,15.7a7.14,7.14,0,0,1-4.1,7.2,7.75,7.75,0,0,1-8.5-.6c-.6-.4-1.1-1-1.7-1.5-6,4.8-13,5.4-20.1,4.8s-12.8-4.3-17-10c-7.4-10.1-9.5-21.1-4.1-32.6,4.8-10.1,13-15.7,24.3-16.6A18.88,18.88,0,0,1,134,39.4l1.2.6C135.3,40.1,135.3,40.1,135.5,40.1ZM112.2,64.6c.1,7,2.1,11.7,6.7,14.9a11.14,11.14,0,0,0,13.8-1c7-6.5,6.4-18.5-1.2-24.3a11.1,11.1,0,0,0-15.6,1.7C113.5,58.8,112.2,62.2,112.2,64.6Z" transform="translate(-4.41 -2.6)" style="fill:#f39701"/><path d="M271.5,37.8c.2-.4.3-.7.4-.9a8,8,0,0,1,8.4-5.1,7.66,7.66,0,0,1,6.8,6.8c.8,6.1,1.4,12.3,2.1,18.5.8,6.8,1.5,13.6,2.3,20.4.2,2,.5,4,.6,6.1a7.58,7.58,0,0,1-4.9,7.3,7.84,7.84,0,0,1-8.8-2c-.1-.1-.2-.3-.3-.4-.2.1-.4.1-.4.2a18.58,18.58,0,0,1-9.6,4.5c-3.6.7-7.2,1.4-10.8.8a25.76,25.76,0,0,1-17.2-10.2c-6.8-9.2-9.2-19.3-5.1-30.2,4.2-11.1,12.6-17.5,24.6-18.9,3.8-.4,7.3.8,10.6,2.5C270.6,37.4,271,37.6,271.5,37.8Zm3,26.5A15.51,15.51,0,0,0,268,51.8a11.12,11.12,0,0,0-14.9,1.6,16.35,16.35,0,0,0,2.4,23.8,11.1,11.1,0,0,0,15.2-1.8C273.3,72.5,274.6,69.1,274.5,64.3Z" transform="translate(-4.41 -2.6)" style="fill:#81bb27"/><path d="M492.8,37.5c5.6.5,11.4,1.9,16.3,5.5,3.9,2.9,4.8,6.9,2.5,11a6.77,6.77,0,0,1-8.3,3.4,31.16,31.16,0,0,1-4.9-2.3c-2.2-1.2-4.5-2.2-7-2a10.24,10.24,0,0,0-3,.8c-1.2.6-1.3,1.7-.1,2.4,2,1,4.1,1.8,6.1,2.8,4.1,2,8.2,3.9,12.3,5.9,5.1,2.6,7.2,7.2,7.4,12.7.3,6.2-2.7,10.9-7.1,14.9a20.59,20.59,0,0,1-11.8,4.8,30,30,0,0,1-19.4-4.2,24.27,24.27,0,0,1-5-4.1,7.31,7.31,0,0,1-1.4-8.1c1.1-2.8,3-4.7,6.1-5.1a8.16,8.16,0,0,1,5.7,1.4c1.6,1,3.2,2.2,4.8,3.1a11.15,11.15,0,0,0,7.8,1.4,1.42,1.42,0,0,0,.6-.2c1.2-.5,2.6-1,2.7-2.5s-1.1-2-2.1-2.6c-1.7-.9-3.5-1.6-5.2-2.4-3.2-1.4-6.4-2.6-9.6-4.1a16.41,16.41,0,0,1-8.6-8.4A13.79,13.79,0,0,1,471,52v-.1c1.8-8.7,8.1-12.1,15.9-14a11,11,0,0,1,1.8-.2C490,37.6,491.2,37.6,492.8,37.5Z" transform="translate(-4.41 -2.6)" style="fill:#f39701"/><path d="M382.6,95.8a35.56,35.56,0,0,1-18.9-5.3c-4.3-2.6-6.3-6.8-7.3-11.6-.8-4.3-.3-8.5.3-12.8,1-7.4,2-14.7,3-22.1.1-1.1.3-2.1.5-3.2.9-3.8,4.4-6.1,8.5-5.8a7.43,7.43,0,0,1,6.8,7.1,74,74,0,0,1-.8,8.1c-.9,7.2-2,14.5-2.9,21.7a14,14,0,0,0,.2,3.5,5.73,5.73,0,0,0,4.8,5,18.31,18.31,0,0,0,7,.5,3.36,3.36,0,0,0,2.9-2.3,49.36,49.36,0,0,0,1.7-7.4c1.2-8.3,2.3-16.7,3.4-25.1a7.76,7.76,0,0,1,8.4-6.7,7.62,7.62,0,0,1,7.2,7.8c-.2,3.3-.8,6.7-1.2,10-.9,6.5-1.7,13.1-2.7,19.6a24.74,24.74,0,0,1-5,11.9,14.78,14.78,0,0,1-10.1,6.1C386.2,95.2,383.8,95.6,382.6,95.8Z" transform="translate(-4.41 -2.6)" style="fill:#81bb27"/><path d="M82.6,36.2c3-2.8,6.6-3.5,10.5-3.4a8.55,8.55,0,0,1,8.2,10,6.35,6.35,0,0,1-3,4.7A30.08,30.08,0,0,1,92.8,50C88,51.5,85,55.3,85,60.2c0,3.2.2,6.3.3,9.5.2,4.9.4,9.8.5,14.7a8.26,8.26,0,1,1-16.5.8c-.3-7.1-.5-14.1-.8-21.2s-.5-14.1-.8-21.1c-.2-3.9,1.2-7,4.8-8.6s6.9-.9,9.8,1.8A.77.77,0,0,1,82.6,36.2Z" transform="translate(-4.41 -2.6)" style="fill:#81bb27"/></svg>