<svg id="b4d88fac-a66c-4afe-a5a4-3854f8cbfdd9" data-name="b1ea71ee-2c50-42d1-b510-2d82d632e9a6" xmlns="http://www.w3.org/2000/svg" viewBox="0 0 463.85 1076.99"><path d="M225.53,1077.91H272.1s-56.55-78.13-63.21-313.49,0-341.81,0-341.81H192.26S184,841.74,225.53,1077.91Z" transform="translate(-3.54 -0.92)" style="fill:#8bc22b"/><path d="M207.91,840.21s46.57-159.66,187.94-91.47c0,0,26.62,157.16-178,124.32l-10-22.87Z" transform="translate(-3.54 -0.92)" style="fill:#8bc22b"/><path d="M197.52,624S145,466.65,3.64,534.84c0,0-10.7,155.27,193.88,122.42Z" transform="translate(-3.54 -0.92)" style="fill:#8bc22b"/><path d="M239.68,224.42S47.8,193.31,122.42,23.4C122.42,23.4,302.86,28,239.68,224.42Z" transform="translate(-3.54 -0.92)" style="fill:#f4a000"/><path d="M354.87,424.67S174.43,420,237.6,223.65c0,0,191.89,31.1,117.27,201" transform="translate(-3.54 -0.92)" style="fill:#f4a000"/><path d="M238.61,222s-31.11,191.89-201,117.27C37.59,339.23,42.23,158.79,238.61,222Z" transform="translate(-3.54 -0.92)" style="fill:#f4a000"/><path d="M438.86,106.78s-4.65,180.44-201,117.26c0,0,31.11-191.88,201-117.26" transform="translate(-3.54 -0.92)" style="fill:#f4a000"/><path d="M243.49,226.06S132.61,66.4,306.7,2.09C306.7,2.09,428.66,135.14,243.49,226.06Z" transform="translate(-3.54 -0.92)" style="fill:#fff;stroke:#fff;stroke-miterlimit:10;stroke-width:2px"/><path d="M179.4,448s-122-133,63.2-224c0,0,110.88,159.67-63.2,224" transform="translate(-3.54 -0.92)" style="fill:#fff;stroke:#fff;stroke-miterlimit:10;stroke-width:2px"/><path d="M244.51,223.59s-159.67,110.88-224-63.21C20.53,160.38,153.59,38.41,244.51,223.59Z" transform="translate(-3.54 -0.92)" style="fill:#fff;stroke:#fff;stroke-miterlimit:10;stroke-width:2px"/><path d="M466.46,287.68s-133.06,122-224-63.2c0,0,159.67-110.88,224,63.2" transform="translate(-3.54 -0.92)" style="fill:#fff;stroke:#fff;stroke-miterlimit:10;stroke-width:2px"/><circle cx="234.29" cy="223.11" r="64.92" style="fill:#f9cf01"/></svg>