<svg id="b1ea71ee-2c50-42d1-b510-2d82d632e9a6" data-name="Layer 1" xmlns="http://www.w3.org/2000/svg" viewBox="0 0 470 1080"><defs><style>.fb5cec87-5e42-4fda-a1e2-8fbf411f60e4{fill:#8bc22b;}.b42cd1ba-5a5b-44bb-bcc0-529204b04b8f{fill:#f4a000;}.a27a490d-de1d-4278-abb5-6847295dfdb2{fill:#e7393c;stroke:#e7393c;stroke-miterlimit:10;stroke-width:2px;}.ea017359-1f09-4041-a3c0-4f742434c108{fill:#f9cf01;}</style></defs><path class="fb5cec87-5e42-4fda-a1e2-8fbf411f60e4" d="M225.53,1077.91H272.1s-56.55-78.13-63.21-313.49,0-341.81,0-341.81H192.26S184,841.74,225.53,1077.91Z"/><path class="fb5cec87-5e42-4fda-a1e2-8fbf411f60e4" d="M207.91,840.21s46.57-159.66,187.94-91.47c0,0,26.62,157.16-178,124.32l-10-22.87Z"/><path class="fb5cec87-5e42-4fda-a1e2-8fbf411f60e4" d="M197.52,624S145,466.65,3.64,534.84c0,0-10.7,155.27,193.88,122.42V624Z"/><path class="b42cd1ba-5a5b-44bb-bcc0-529204b04b8f" d="M239.68,224.42S47.8,193.31,122.42,23.4C122.42,23.4,302.86,28,239.68,224.42Z"/><path class="b42cd1ba-5a5b-44bb-bcc0-529204b04b8f" d="M354.87,424.67S174.43,420,237.6,223.65c0,0,191.89,31.1,117.27,201"/><path class="b42cd1ba-5a5b-44bb-bcc0-529204b04b8f" d="M238.61,222s-31.11,191.89-201,117.27C37.59,339.23,42.23,158.79,238.61,222Z"/><path class="b42cd1ba-5a5b-44bb-bcc0-529204b04b8f" d="M438.86,106.78s-4.65,180.44-201,117.26c0,0,31.11-191.88,201-117.26"/><path class="a27a490d-de1d-4278-abb5-6847295dfdb2" d="M243.49,226.06S132.61,66.4,306.7,2.09C306.7,2.09,428.66,135.14,243.49,226.06Z"/><path class="a27a490d-de1d-4278-abb5-6847295dfdb2" d="M179.4,448S57.43,315,242.6,224c0,0,110.88,159.67-63.2,224"/><path class="a27a490d-de1d-4278-abb5-6847295dfdb2" d="M244.51,223.59s-159.67,110.88-224-63.21C20.53,160.38,153.59,38.41,244.51,223.59Z"/><path class="a27a490d-de1d-4278-abb5-6847295dfdb2" d="M466.46,287.68s-133.06,122-224-63.2c0,0,159.67-110.88,224,63.2"/><circle class="ea017359-1f09-4041-a3c0-4f742434c108" cx="237.83" cy="224.03" r="64.92"/></svg>