<svg id="a47fcefe-bfe8-4675-a44a-2bb3ce28fdd5" data-name="Layer 1" xmlns="http://www.w3.org/2000/svg" viewBox="0 0 1080 1080"><defs><style>.a7439ff2-0ad4-4387-abd0-ede319ad152d{fill:#e7393c;stroke:#e7393c;stroke-miterlimit:10;stroke-width:2px;}.ed91e4b9-a4b8-468c-9465-3342c7e14677{fill:#fff;}.a3c9d00e-44eb-4488-a158-1867c7cef41f{fill:#f4a000;}</style></defs><circle class="a7439ff2-0ad4-4387-abd0-ede319ad152d" cx="540" cy="540" r="536.3"/><path class="ed91e4b9-a4b8-468c-9465-3342c7e14677" d="M515.25,229.43c-27.12-51-90.68-129.43-180.76-82.51C245,193.52,300.18,329,307.74,346.4A305.28,305.28,0,0,1,515.25,229.43Z"/><path class="ed91e4b9-a4b8-468c-9465-3342c7e14677" d="M762.53,313.78c20-53.29,38.3-157.54-59.61-193.24-85.78-31.27-145.28,74-161.56,107.12,2.78-.08,5.55-.21,8.34-.21A304.68,304.68,0,0,1,762.53,313.78Z"/><path class="ed91e4b9-a4b8-468c-9465-3342c7e14677" d="M964.58,396C936.9,309.34,818,326.31,781.34,333.76a304.42,304.42,0,0,1,74.1,199.42c0,8.88-.46,17.64-1.2,26.32C909.16,541,995.16,491.75,964.58,396Z"/><path class="ed91e4b9-a4b8-468c-9465-3342c7e14677" d="M849.08,595.43A305.93,305.93,0,0,1,715,790.35c48.89,31.18,141,67.1,196.33-16.59C959.29,701.19,881.14,623,849.08,595.43Z"/><path class="ed91e4b9-a4b8-468c-9465-3342c7e14677" d="M452.31,823c6.52,57.74,36.3,150.67,135.55,141.6,85.83-7.85,98.56-115.67,100.22-158.8A305.48,305.48,0,0,1,452.31,823Z"/><path class="ed91e4b9-a4b8-468c-9465-3342c7e14677" d="M259.16,628.38c-41.52,38.16-106.8,124.55-34.07,201,61,64.17,157,2.3,189.47-21.95A306.57,306.57,0,0,1,259.16,628.38Z"/><path class="ed91e4b9-a4b8-468c-9465-3342c7e14677" d="M244,533.18a304.2,304.2,0,0,1,48.67-165.41c-55-10.39-165-11.35-182.3,93.67C94.42,558,227,595.84,251.86,602.08A306.77,306.77,0,0,1,244,533.18Z"/><path class="a3c9d00e-44eb-4488-a158-1867c7cef41f" d="M550.62,256.63C399,256.63,276,379.56,276,531.21S399,805.78,550.62,805.78,825.2,682.85,825.2,531.21,702.26,256.63,550.62,256.63ZM424.77,399.44c3.08-6.29,10.19-12,16.11-15.5a44.07,44.07,0,0,1,22.8-6.29,38.73,38.73,0,0,1,8.75,1.08c11.82,2.87,21.82,11.44,27.36,22.15,3.3,6.39,11.06,30.81-4.34,25.83-3.3-1.07-6-3.37-8.84-5.4a64,64,0,0,0-44.19-11.52C434.76,410.66,418.82,411.57,424.77,399.44Zm300.9,176.38A175.84,175.84,0,0,1,690,646c-34,41.08-83.23,64-137.57,63.92-118.28-.12-203.68-114.6-170-228,1-3.52,2.42-6.95,3.64-10.43,3-8.54,8.64-12.71,17.79-10,8.28,2.44,10.74,9.5,8.13,19.7-3,11.64-6.44,23.31-7.85,35.18-10.59,89.41,62.75,168.81,152.63,165.7,67.07-2.33,121.19-43.87,140.75-108.07.59-1.92,1-3.92,1.65-5.8,2.89-7.83,8-12.47,16.85-10.5C723.84,559.49,727.9,566.91,725.67,575.82Zm.11-68.41c-.74,4.76-4,9.27-9.38,6.84-2.61-1.18-4.48-3.52-6.39-5.66a65.83,65.83,0,0,0-30.53-19.1c-6.93-2-27.78-.77-30.73-9.17-2.81-8,13.31-17.14,19-19.6,10-4.3,21.82-4.84,32-.64,16.1,6.66,26.65,24.05,26.49,41.41A42.06,42.06,0,0,1,725.78,507.41Z"/></svg>