<svg id="Capa_1" enable-background="new 0 0 511.985 511.985" height="512" viewBox="0 0 511.985 511.985" width="512" xmlns="http://www.w3.org/2000/svg"><g><g><path d="m403.566 180.832c0-96.143-78.279-174.003-174.579-173.324-93.865.662-170.722 76.938-172.06 170.795-.718 50.383 20.068 95.914 53.765 128.019 17.565 16.735 27.755 39.762 27.755 64.023v31.602h183.582v-31.603c0-24.182 10.061-47.208 27.59-63.866 33.228-31.575 53.947-76.188 53.947-125.646z" fill="#f6e266"/><path d="m153.61 178.303c-.313 50.389 8.878 95.919 23.779 128.026 7.764 16.73 12.272 39.758 12.272 64.013v31.606h-51.216v-31.606c0-24.255-10.181-47.284-27.749-64.013-33.696-32.106-54.483-77.637-53.769-128.026 1.34-93.853 78.201-170.138 172.066-170.789h.701c-41.51.651-75.495 76.936-76.084 170.789z" fill="#eab14d"/><path d="m138.446 370.346h183.582v47.255h-183.582z" fill="#665e66"/><path d="m322.029 401.948v40.688c0 18.402-11.414 34.875-28.645 41.338l-46.753 17.537c-10.569 3.965-22.218 3.965-32.787 0l-46.753-17.537c-17.23-6.463-28.645-22.935-28.645-41.338v-40.688" fill="#f6f1f1"/><path d="m138.446 370.343h51.216v47.258h-51.216z" fill="#454045"/><path d="m230.221 504.495c-5.535 0-11.094-.989-16.366-2.98l-46.758-17.544c-17.23-6.461-28.651-22.928-28.651-41.335v-40.684h51.216v40.684c0 18.407 5.046 34.874 12.672 41.335l20.661 17.544c2.33 1.991 4.772 2.98 7.226 2.98z" fill="#dfdfdf"/><circle cx="320.416" cy="103.487" fill="#f9f48e" r="34.458"/></g><g><path d="m455.077 72.883h-30.233c-4.143 0-7.5 3.358-7.5 7.5s3.357 7.5 7.5 7.5h30.233c4.143 0 7.5-3.358 7.5-7.5s-3.357-7.5-7.5-7.5z"/><path d="m382.208 45.237c4.143 0 7.5-3.358 7.5-7.5v-30.223c0-4.142-3.357-7.5-7.5-7.5s-7.5 3.358-7.5 7.5v30.223c0 4.142 3.357 7.5 7.5 7.5z"/><path d="m439.032 34.166c1.407-1.406 2.197-3.314 2.197-5.303v-.01c0-4.142-3.357-7.495-7.5-7.495-2.129 0-4.05.888-5.415 2.314l-21.257 21.256c-2.93 2.929-2.93 7.678-.001 10.607 1.465 1.465 3.384 2.197 5.304 2.197 1.919 0 3.839-.732 5.303-2.197z"/><path d="m228.929.004c-40.333.294-78.476 13.703-110.305 38.778-3.254 2.563-3.813 7.279-1.25 10.533s7.279 3.813 10.533 1.25c29.188-22.995 64.158-35.292 101.128-35.561 44.583-.298 86.467 16.795 118.055 48.164 31.585 31.367 48.98 73.154 48.98 117.663 0 45.887-18.331 88.579-51.616 120.211-17.178 16.326-27.736 38.52-29.616 61.804h-55.642v-128.285h26.764c23.028 0 41.763-18.735 41.763-41.763s-18.734-41.763-41.763-41.763h-.001c-23.028 0-41.763 18.735-41.763 41.763v34.263 135.785h-27.916v-135.785-34.263c0-23.028-18.735-41.763-41.764-41.763s-41.763 18.735-41.763 41.763 18.734 41.763 41.763 41.763h26.764v128.285h-55.643c-1.892-23.252-12.503-45.499-29.769-61.958-33.351-31.767-52.101-76.409-51.442-122.48.57-39.91 15.678-78.347 42.538-108.231 2.769-3.081 2.516-7.823-.564-10.592-3.082-2.771-7.822-2.515-10.592.564-29.286 32.583-45.758 74.506-46.38 118.044-.367 25.678 4.54 50.554 14.585 73.935 9.69 22.555 23.656 42.614 41.508 59.618 16.157 15.404 25.425 36.763 25.425 58.601v66.775l-.162.019c-4.114.48-7.061 4.205-6.58 8.319.445 3.819 3.687 6.632 7.439 6.632.063 0 .127-.01.191-.011.581 3.089 1.445 6.098 2.562 8.998l-.648.08c-4.11.509-7.031 4.253-6.522 8.364.47 3.799 3.702 6.58 7.434 6.58.308 0 .618-.019.931-.057l6.967-.862c5.669 6.989 13.16 12.536 21.904 15.814l46.753 17.541c6.135 2.298 12.578 3.447 19.024 3.447s12.895-1.149 19.031-3.448l32.699-12.27c3.878-1.455 5.843-5.779 4.387-9.657-1.455-3.878-5.778-5.841-9.656-4.387l-32.695 12.269c-8.877 3.325-18.653 3.325-27.524.001l-46.751-17.541c-2.835-1.063-5.474-2.474-7.899-4.153l150.85-18.656c-2.101 6.362-5.929 12.09-11.186 16.513-3.169 2.667-3.576 7.398-.91 10.567 1.484 1.763 3.605 2.672 5.743 2.672 1.704 0 3.419-.578 4.824-1.761 9.21-7.749 15.307-18.343 17.481-29.963l1.113-.138c4.11-.509 7.031-4.253 6.522-8.364-.439-3.558-3.309-6.218-6.734-6.542v-8.076l.16-.019c4.114-.48 7.061-4.205 6.58-8.319-.417-3.579-3.293-6.271-6.74-6.596v-43.772c0-21.881 9.205-43.178 25.256-58.432 36.294-34.492 56.282-81.046 56.282-131.084 0-48.536-18.969-94.103-53.411-128.306-34.446-34.206-80.121-52.835-128.732-52.52zm30.266 192.794c0-14.757 12.006-26.763 26.764-26.763 14.757 0 26.763 12.006 26.763 26.763s-12.006 26.763-26.763 26.763h-26.764zm-111.441 0c0-14.757 12.006-26.763 26.763-26.763 14.758 0 26.764 12.006 26.764 26.763v26.763h-26.764c-14.757 0-26.763-12.006-26.763-26.763zm-1.809 185.048h168.587v16.601h-168.587zm0 31.601h168.587v6.254l-168.587 19.671zm168.587 29.354-164.601 20.356c-1.405-2.766-2.46-5.715-3.131-8.783l167.732-19.571z"/></g></g></svg>