<svg id="Capa_1" enable-background="new 0 0 511.98 511.98" height="512" viewBox="0 0 511.98 511.98" width="512" xmlns="http://www.w3.org/2000/svg"><g><g><path d="m440.536 437.32-48.83 40.47c-5.11 4.24-15.86 1.97-15.86-3.34v-15.25h-34.63c-17.64 26.59-59.41 45.28-108.15 45.28-64.2 0-117.09-33.3-117.11-73.52 0-.26.01-.51.01-.77.35-21.18 14.96-40.21 38.09-53.49h158.02c12.51 7.17 22.52 16.04 29.14 26.01h34.63v-15.24c0-5.31 10.75-7.58 15.86-3.35l48.83 40.48c4.54 3.76 4.54 8.96 0 12.72z" fill="#78d0b1"/><path d="m248.556 376.7-15.49 54.26h-117.11c0-.26.01-.51.01-.77.35-21.18 14.96-40.21 38.09-53.49z" fill="#57988b"/><path d="m398.04 167.976c-3.957-213.994-325.989-213.994-329.946 0-.033 1.778-.049 3.56-.049 5.345 0 114.281 67.619 212.756 165.022 257.637 97.403-44.881 165.022-143.356 165.022-257.637 0-1.785-.016-3.567-.049-5.345z" fill="#dd636e"/><circle cx="233.067" cy="178.638" fill="#f6f1f1" r="111.716"/><path d="m256.118 287.971c-7.435 1.565-15.15 2.382-23.052 2.382-61.697 0-111.716-50.019-111.716-111.716 0-61.704 50.019-111.716 111.716-111.716 7.902 0 15.617.817 23.052 2.382-50.65 10.619-88.672 55.531-88.672 109.334.001 53.796 38.023 98.716 88.672 109.334z" fill="#dfdfdf"/></g><g><path d="m233.067 297.854c65.736 0 119.216-53.48 119.216-119.216 0-65.735-53.48-119.215-119.216-119.215s-119.216 53.48-119.216 119.215c0 65.736 53.48 119.216 119.216 119.216zm0-223.431c57.465 0 104.216 46.751 104.216 104.215 0 57.465-46.751 104.216-104.216 104.216s-104.216-46.751-104.216-104.216c0-57.464 46.751-104.215 104.216-104.215z"/><path d="m445.319 418.827-48.834-40.483c-5.894-4.88-14.714-4.735-20.38-2.07-4.861 2.287-7.763 6.472-7.763 11.197v7.74h-23.252c-5.437-7.239-12.589-13.959-21.068-19.83 12.715-13.187 24.231-27.604 34.363-43.113 30.883-47.273 47.208-102.237 47.208-158.947 0-1.823-.021-3.656-.052-5.479-1.434-77.603-44.807-137.177-116.023-159.36-34.735-10.82-73.204-11.304-108.318-1.361-37.405 10.591-68.416 31.853-89.681 61.487-2.415 3.366-1.644 8.051 1.721 10.466 3.366 2.414 8.051 1.644 10.466-1.721 19.265-26.848 47.474-46.143 81.58-55.799 32.349-9.16 67.781-8.715 99.771 1.25 29.983 9.339 55.447 26.483 73.639 49.58 20.439 25.948 31.154 58.159 31.848 95.726.03 1.728.049 3.475.049 5.211 0 53.789-15.479 105.916-44.765 150.743-27.91 42.722-66.85 76.76-112.765 98.615-45.911-21.855-84.848-55.894-112.756-98.615-29.285-44.829-44.764-96.955-44.764-150.744 0-1.737.02-3.484.049-5.201.452-24.342 5.202-46.704 14.118-66.465 1.704-3.776.023-8.217-3.752-9.921-3.776-1.705-8.218-.024-9.921 3.752-9.757 21.625-14.953 45.969-15.442 72.366-.031 1.813-.051 3.646-.051 5.468 0 56.71 16.324 111.673 47.206 158.947 10.132 15.51 21.648 29.928 34.364 43.116-21.168 14.665-33.31 34.208-33.648 54.686-.257 15.815 6.5 31.18 19.541 44.435 23.088 23.467 62.362 37.477 105.058 37.477 28.225 0 55.833-6.22 77.737-17.514 3.682-1.898 5.127-6.421 3.229-10.103-1.898-3.681-6.421-5.128-10.103-3.229-19.819 10.219-44.985 15.846-70.863 15.846-38.182 0-74.34-12.644-94.365-32.997-10.158-10.324-15.426-21.967-15.235-33.669.268-16.239 10.969-32.124 29.562-44.193 22.612 21.112 48.523 38.576 76.9 51.651.996.459 2.067.688 3.139.688s2.143-.229 3.138-.688c28.381-13.076 54.294-30.54 76.908-51.652 9.308 6.037 16.807 13.134 21.856 20.739 1.39 2.093 3.735 3.352 6.248 3.352h34.63c4.142 0 7.5-3.358 7.5-7.5v-13.156c1.241-.258 2.982-.148 3.573.34l48.833 40.482c.285.236.47.438.582.583-.112.146-.298.349-.584.585l-48.833 40.473c-.592.491-2.331.604-3.571.347v-13.165c0-4.142-3.358-7.5-7.5-7.5h-34.63c-2.517 0-4.866 1.262-6.255 3.361-2.299 3.476-5.131 6.871-8.417 10.093-2.957 2.9-3.003 7.649-.104 10.606 2.901 2.958 7.649 3.003 10.606.104 2.988-2.931 5.686-6.001 8.055-9.165h23.244v7.75c0 4.728 2.905 8.915 7.77 11.2 2.46 1.156 5.514 1.835 8.665 1.835 4.107 0 8.379-1.156 11.711-3.921l48.828-40.468c3.947-3.269 6.122-7.579 6.122-12.136s-2.177-8.866-6.122-12.132z"/></g></g></svg>