<svg id="emuxpmm36vl1" xmlns="http://www.w3.org/2000/svg" xmlns:xlink="http://www.w3.org/1999/xlink" viewBox="0 0 595.280000 841.890000" shape-rendering="geometricPrecision" text-rendering="geometricPrecision"><g id="emuxpmm36vl2" transform="matrix(1 0 0 1 1.20458166499998 0)"><g id="emuxpmm36vl3"><path id="emuxpmm36vl4" d="M301.830000,666.120000C301.830000,666.120000,325.490000,656.600000,335.190000,681.980000L335.190000,703.090000C335.190000,703.090000,321.430000,711.430000,302.410000,705.660000L301.830000,666.120000Z" fill="rgb(251,225,0)" stroke="none" stroke-width="1"/><path id="emuxpmm36vl5" d="M318.300000,665.160000L317.800000,664.130000L317.800000,662.500000L316.750000,661.920000L315.470000,661.450000L314.540000,660.280000L312.440000,660.280000L309.850000,655.930000L309.180000,657.370000L308.480000,657.250000L305.910000,661.100000L304.630000,666.580000L303.230000,668.910000L304.630000,693.060000L307.780000,709.740000L313.960000,716.040000L318.290000,717.970000C318.290000,717.970000,319.090000,718.260000,318.970000,713.240000C318.970000,713.240000,319.550000,711.720000,319.900000,713.120000C319.900000,713.120000,319.790000,718.980000,320.720000,718.600000L324.800000,715.920000L334.130000,701.570000L339.150000,681.510000L339.150000,663.780000L334.830000,659.700000L334.250000,661.680000L333.430000,662.730000L333.080000,665.300000L332.030000,665.530000L331.330000,670.900000L330.280000,670.900000L329.860000,672.590000C329.860000,672.590000,334.730000,678.910000,334.950000,681.980000C334.950000,681.980000,334.350000,695.920000,326.380000,703.900000L322.820000,706.250000C322.820000,706.250000,317.570000,708.350000,311.040000,706.370000L309.290000,701.820000L308.710000,699.840000L309.060000,697.040000L307.660000,692.260000L306.140000,673.830000C306.140000,673.830000,305.890000,669.710000,305.890000,669.360000C305.890000,669.010000,306.130000,667.730000,306.130000,667.730000L306.430000,665.460000C306.440000,665.450000,313.430000,664.110000,318.300000,665.160000Z" fill="rgb(76,76,76)" stroke="none" stroke-width="1"/><path id="emuxpmm36vl6" d="M309.850000,655.940000C309.850000,655.940000,296.830000,655.560000,288.980000,660.920000L287.830000,660.920000C287.830000,660.920000,279.410000,664.940000,276.150000,682.360000C272.890000,699.780000,288.790000,715.480000,295.490000,716.630000C302.190000,717.780000,299.890000,715.670000,306.790000,718.930000C313.680000,722.190000,318.300000,717.970000,318.300000,717.970000C318.300000,717.970000,318.630000,715.690000,315.720000,715.690000L314.670000,714.990000L313.620000,713.360000L312.340000,713.360000L311.760000,711.610000C311.760000,711.610000,308.840000,708.930000,307.790000,703.090000L306.380000,693.770000L306.280000,692.120000C305.160000,692.120000,304.340000,677.450000,304.800000,674.180000C304.800000,674.180000,303.950000,668.790000,304.650000,666.570000L305.350000,663.770000L305.930000,661.090000L307.210000,659.110000L308.490000,657.240000L309.190000,657.360000L309.850000,655.940000Z" fill="rgb(43,165,162)" stroke="none" stroke-width="1"/><path id="emuxpmm36vl7" d="M335.540000,658.310000C335.540000,658.310000,344.640000,661.110000,351.520000,667.180000L352.340000,667.180000C352.340000,667.180000,366.220000,676.160000,355.140000,700.660000C355.140000,700.660000,346.390000,716.990000,331.230000,718.620000C331.230000,718.620000,329.010000,718.270000,328.080000,717.920000C328.080000,717.920000,323.410000,717.220000,320.730000,718.620000L322.600000,716.520000L323.070000,713.950000L326.450000,711.850000L326.680000,708.230000L327.380000,707.410000L327.850000,706.480000L329.830000,704.610000L329.830000,702.980000L330.880000,700.180000L332.160000,699.950000C332.930000,700.050000,338.470000,685.440000,337.170000,680.870000L336.940000,678.610000L336.710000,673.940000L336.590000,672.230000L336.940000,668.800000L336.240000,667.630000L336.820000,664.250000L335.420000,661.680000L334.840000,659.700000L335.540000,658.310000Z" fill="rgb(43,165,162)" stroke="none" stroke-width="1"/></g></g><g id="emuxpmm36vl8"><g id="emuxpmm36vl9"><path id="emuxpmm36vl10" d="M238.760000,444.250000C257.840000,443.390000,310.410000,457.200000,315.050000,506.120000C319.690000,555.040000,282.580000,569.910000,249.070000,572.780000C215.560000,575.660000,172.760000,539.690000,175.870000,500.840000C178.450000,468.710000,217.630000,445.210000,238.760000,444.250000Z" transform="matrix(0 0 0 0 245.57733917236328 508.57734680175781)" opacity="0" fill="rgb(43,165,162)" stroke="none" stroke-width="1"/><path id="emuxpmm36vl11" d="M184.640000,360.800000C197.010000,364.630000,220.720000,419.790000,217.630000,431.300000C214.540000,442.810000,166.600000,468.230000,166.600000,468.230000L155.260000,521.940000L147.010000,479.730000C147.010000,479.730000,117.630000,508.510000,93.400000,481.650000C69.170000,454.790000,43.370000,433.650000,72.270000,416.420000C105.260000,396.770000,172.270000,356.970000,184.640000,360.800000Z" transform="matrix(0 0 0 0 138.69427871704102 441.24108886718750)" opacity="0" fill="rgb(251,225,1)" stroke="none" stroke-width="1"/><path id="emuxpmm36vl12" d="M381.550000,412.600000C409.240000,398.130000,448.560000,391.020000,468.660000,406.840000C495.070000,427.630000,487.730000,482.620000,437.220000,495.570000C363.830000,514.380000,317.630000,556.960000,317.630000,556.960000C317.630000,556.960000,337.730000,529.140000,332.580000,486.460000C329.320000,459.460000,343.920000,432.260000,381.550000,412.600000Z" transform="matrix(0 0 0 0 400.63359069824219 477.41294860839844)" opacity="0" fill="rgb(251,225,1)" stroke="none" stroke-width="1"/><path id="emuxpmm36vl13" d="M487.220000,462.480000L501.140000,429.390000C501.140000,429.390000,463.510000,404.450000,484.130000,376.630000C499.990000,355.230000,539.630000,353.670000,560.420000,365.120000C585.680000,379.030000,592.890000,418.840000,558.870000,429.390000C537.520000,436.010000,516.600000,433.230000,516.600000,433.230000L487.220000,462.480000Z" transform="matrix(0 0 0 0 529.94020080566406 410.27090454101563)" opacity="0" fill="rgb(43,165,162)" stroke="none" stroke-width="1"/><path id="emuxpmm36vl14" d="M493.410000,208.770000C549.160000,209.700000,594.440000,255.290000,582.590000,299.420000C570.730000,343.540000,520.220000,357.450000,477.430000,356.490000C448.530000,355.840000,404.750000,391.980000,404.750000,391.980000C404.750000,391.980000,435.160000,353.610000,407.840000,318.600000C380.210000,283.200000,406.810000,207.330000,493.410000,208.770000Z" transform="matrix(0 0 0 0 490.93229675292969 300.36489868164063)" opacity="0" fill="rgb(188,201,201)" stroke="none" stroke-width="1"/><path id="emuxpmm36vl15" d="M205.260000,313.800000C205.260000,313.800000,178.970000,329.150000,164.540000,290.780000C150.110000,252.410000,89.280000,230.830000,38.250000,263.920000C-1.260000,289.540000,-5.570000,365.600000,60.930000,381.900000C127.420000,398.210000,202.680000,321.470000,205.260000,313.800000Z" transform="matrix(0 0 0 0 107.39743804931641 315.90273284912109)" opacity="0" fill="rgb(188,201,201)" stroke="none" stroke-width="1"/><path id="emuxpmm36vl16" d="M72.270000,159.370000C83.610000,153.190000,154.760000,159.770000,167.630000,162.250000C182.580000,165.130000,193.400000,218.360000,166.080000,215.970000C138.360000,213.540000,140.820000,246.180000,140.820000,246.180000C140.820000,246.180000,126.390000,225.560000,101.640000,224.600000C76.900000,223.640000,61.430000,227.960000,59.890000,203.980000C58.350000,179.990000,57.320000,167.520000,72.270000,159.370000Z" transform="matrix(0 0 0 0 120.97363662719727 201.48889923095703)" opacity="0" fill="rgb(43,165,162)" stroke="none" stroke-width="1"/><path id="emuxpmm36vl17" d="M197.530000,194.380000C197.530000,194.380000,209.390000,175.200000,187.740000,147.380000C166.090000,119.560000,192.380000,74,250.110000,66.810000C307.840000,59.620000,336.710000,101.340000,314.540000,133.480000C292.370000,165.600000,233.610000,155.530000,197.530000,194.380000Z" transform="matrix(0 0 0 0 251.10623931884766 130.18619537353516)" opacity="0" fill="rgb(188,201,201)" stroke="none" stroke-width="1"/><path id="emuxpmm36vl18" d="M364.540000,67.290000C394.960000,59.040000,515.050000,85.550000,522.280000,128.680000C528.470000,165.610000,502.690000,202.540000,468.160000,200.620000C433.620000,198.700000,399.090000,207.810000,399.090000,207.810000C399.090000,207.810000,438.270000,192.460000,409.400000,183.350000C380.530000,174.240000,320.220000,164.650000,328.980000,129.640000C337.730000,94.620000,339.800000,74,364.540000,67.290000Z" transform="matrix(0 0 0 0 425.66018676757813 136.79981231689453)" opacity="0" fill="rgb(43,165,162)" stroke="none" stroke-width="1"/><path id="emuxpmm36vl19" d="M284.130000,170.880000C321.760000,165.600000,380.010000,180.470000,384.130000,215.480000C391.410000,277.240000,319.700000,297.010000,319.700000,297.010000C319.700000,297.010000,333.620000,267.270000,296.500000,270.630000C259.390000,273.990000,225.590000,264.390000,224.850000,223.630000C224.330000,195.340000,256.390000,174.770000,284.130000,170.880000Z" transform="matrix(0 0 0 0 304.74640655517578 233.42617034912109)" opacity="0" fill="rgb(236,147,63)" stroke="none" stroke-width="1"/><path id="emuxpmm36vl20" d="M284.130000,170.880000C321.760000,165.600000,380.010000,180.470000,384.130000,215.480000C391.410000,277.240000,319.700000,297.010000,319.700000,297.010000C319.700000,297.010000,333.620000,267.270000,296.500000,270.630000C259.390000,273.990000,225.590000,264.390000,224.850000,223.630000C224.330000,195.340000,256.390000,174.770000,284.130000,170.880000Z" transform="matrix(0 0 0 0 304.74640655517578 233.42617034912109)" opacity="0" fill="rgb(251,225,1)" stroke="none" stroke-width="1"/><path id="emuxpmm36vl21" d="M217.110000,383.340000C214.530000,348.810000,245.510000,316.660000,313.500000,314.280000C368.140000,312.360000,403.710000,331.540000,399.070000,370.870000C394.790000,407.110000,295.970000,453.840000,295.970000,453.840000L311.430000,431.780000C311.450000,431.780000,221.080000,436.500000,217.110000,383.340000Z" transform="matrix(0 0 0 0 303.20227813271481 384.15057190320306)" opacity="0" fill="rgb(142,27,85)" stroke="none" stroke-width="1"/><path id="emuxpmm36vl22" d="M160.410000,240.900000C167.410000,228.900000,202.160000,222.670000,212.470000,240.420000C222.780000,258.170000,208.350000,278.790000,184.630000,280.230000C160.930000,281.670000,150.620000,257.690000,160.410000,240.900000Z" transform="matrix(0 0 0 0 186.28914642333984 254.82846832275391)" opacity="0" fill="rgb(188,201,201)" stroke="none" stroke-width="1"/><path id="emuxpmm36vl23" d="M355.850000,290.190000C361.160000,281.430000,377.730000,280.860000,386.120000,288.670000C396.760000,298.570000,390.050000,317.200000,367.300000,314.550000C354.210000,313.030000,349.280000,301.010000,355.850000,290.190000Z" transform="matrix(0 0 0 0 372.00198364257813 298.99842834472656)" opacity="0" fill="rgb(188,201,201)" stroke="none" stroke-width="1"/><path id="emuxpmm36vl24" d="M265,278.790000C251.700000,266.420000,225.450000,267.330000,217.030000,281.200000C209.030000,294.360000,211.800000,308.640000,222.900000,315.660000C224.330000,317.550000,227.440000,324.230000,212.200000,335.340000C212.200000,335.340000,244.290000,324.150000,258.020000,317.090000C274.870000,309.630000,277.490000,290.420000,265,278.790000Z" transform="matrix(0 0 0 0 242.50324249267578 302.72779846191406)" opacity="0" fill="rgb(43,165,162)" stroke="none" stroke-width="1"/><path id="emuxpmm36vl25" d="M194.660000,218.190000C196.150000,215.640000,203.540000,214.310000,205.740000,218.090000C207.930000,221.870000,204.860000,226.250000,199.820000,226.560000C194.770000,226.860000,192.580000,221.760000,194.660000,218.190000Z" transform="matrix(0 0 0 0 200.16764068603516 221.15464782714844)" opacity="0" fill="rgb(188,201,201)" stroke="none" stroke-width="1"/><path id="emuxpmm36vl26" d="M204.730000,207.430000C205.640000,205.870000,210.180000,205.050000,211.520000,207.370000C212.860000,209.680000,210.980000,212.370000,207.890000,212.560000C204.790000,212.750000,203.450000,209.620000,204.730000,207.430000Z" transform="matrix(0 0 0 0 208.10299682617188 209.24747467041016)" opacity="0" fill="rgb(188,201,201)" stroke="none" stroke-width="1"/><path id="emuxpmm36vl27" d="M558.360000,176.640000C547.790000,166.800000,526.920000,167.530000,520.220000,178.560000C512.990000,190.450000,516.810000,203.490000,528.850000,207.900000L528.740000,207.920000C528.740000,207.920000,546.270000,217.010000,554.930000,219.480000C554.930000,219.480000,548.240000,214.400000,547.820000,208.720000C565.580000,204.690000,569.410000,186.920000,558.360000,176.640000Z" opacity="0" fill="rgb(251,225,1)" stroke="none" stroke-width="1"/><path id="emuxpmm36vl28" d="M402.890000,217.850000C404.380000,215.300000,411.770000,213.970000,413.970000,217.750000C416.160000,221.530000,413.090000,225.910000,408.050000,226.220000C403,226.520000,400.810000,221.420000,402.890000,217.850000Z" transform="matrix(0 0 0 0 408.39764404296875 220.81465148925781)" opacity="0" fill="rgb(255,255,255)" stroke="none" stroke-width="1"/><path id="emuxpmm36vl29" d="M395.350000,232.300000C396.260000,230.740000,400.800000,229.920000,402.140000,232.240000C403.480000,234.550000,401.600000,237.240000,398.510000,237.430000C395.420000,237.620000,394.070000,234.490000,395.350000,232.300000Z" transform="matrix(0 0 0 0 398.72372436523438 234.11748504638672)" opacity="0" fill="rgb(255,255,255)" stroke="none" stroke-width="1"/><path id="emuxpmm36vl30" d="M169.250000,123.240000C159.330000,114.010000,139.750000,114.690000,133.460000,125.040000C130.130000,130.520000,129.300000,136.260000,130.660000,141.170000C127.100000,146.670000,116.620000,146.520000,116.620000,146.520000C123.830000,149.370000,139.530000,152.430000,143.640000,153.210000C144.710000,153.490000,145.820000,153.700000,147,153.840000C173.890000,156.970000,181.820000,134.940000,169.250000,123.240000Z" transform="matrix(0 0 0 0 145.84791183471680 135.45463180541992)" opacity="0" fill="rgb(251,225,1)" stroke="none" stroke-width="1"/></g></g><g id="emuxpmm36vl31"><path id="emuxpmm36vl32" d="M290.930000,581.380000C277.460000,586.600000,282.170000,610.640000,299.180000,612.550000C316.190000,614.470000,322.380000,596.240000,318.770000,588.090000C315.160000,579.940000,303.300000,576.580000,290.930000,581.380000Z" transform="matrix(0.50000000000000 0 0 0.50000000000000 150.71907806396484 297.96459960937500)" fill="rgb(188,201,201)" stroke="none" stroke-width="1"/><path id="emuxpmm36vl33" d="M330.230000,619.710000C322.600000,620.180000,318.770000,629.580000,323.440000,634.710000C328.110000,639.840000,337.130000,638.090000,339.990000,628.790000C341.690000,623.260000,336.590000,619.320000,330.230000,619.710000Z" transform="matrix(2 0 0 2 -330.86280822753906 -628.61422729492188)" fill="rgb(188,201,201)" stroke="none" stroke-width="1"/></g><script><![CDATA[!function(t,n){"object"==typeof exports&&"undefined"!=typeof module?module.exports=n():"function"==typeof define&&define.amd?define(n):(t="undefined"!=typeof globalThis?globalThis:t||self).__SVGATOR_PLAYER__=n()}(this,(function(){"use strict";function t(n){return(t="function"==typeof Symbol&&"symbol"==typeof Symbol.iterator?function(t){return typeof t}:function(t){return t&&"function"==typeof Symbol&&t.constructor===Symbol&&t!==Symbol.prototype?"symbol":typeof t})(n)}function n(t,n){if(!(t instanceof n))throw new TypeError("Cannot call a class as a function")}function r(t,n){for(var r=0;r<n.length;r++){var e=n[r];e.enumerable=e.enumerable||!1,e.configurable=!0,"value"in e&&(e.writable=!0),Object.defineProperty(t,e.key,e)}}function e(t,n,e){return n&&r(t.prototype,n),e&&r(t,e),t}function i(t){return(i=Object.setPrototypeOf?Object.getPrototypeOf:function(t){return t.__proto__||Object.getPrototypeOf(t)})(t)}function o(t,n){return(o=Object.setPrototypeOf||function(t,n){return t.__proto__=n,t})(t,n)}function u(t,n){return!n||"object"!=typeof n&&"function"!=typeof n?function(t){if(void 0===t)throw new ReferenceError("this hasn't been initialised - super() hasn't been called");return t}(t):n}function a(t){var n=function(){if("undefined"==typeof Reflect||!Reflect.construct)return!1;if(Reflect.construct.sham)return!1;if("function"==typeof Proxy)return!0;try{return Boolean.prototype.valueOf.call(Reflect.construct(Boolean,[],(function(){}))),!0}catch(t){return!1}}();return function(){var r,e=i(t);if(n){var o=i(this).constructor;r=Reflect.construct(e,arguments,o)}else r=e.apply(this,arguments);return u(this,r)}}function l(t,n,r){return(l="undefined"!=typeof Reflect&&Reflect.get?Reflect.get:function(t,n,r){var e=function(t,n){for(;!Object.prototype.hasOwnProperty.call(t,n)&&null!==(t=i(t)););return t}(t,n);if(e){var o=Object.getOwnPropertyDescriptor(e,n);return o.get?o.get.call(r):o.value}})(t,n,r||t)}var f=Math.abs;function s(t){return t}function c(t,n,r){var e=1-r;return 3*r*e*(t*e+n*r)+r*r*r}function h(){var t=arguments.length>0&&void 0!==arguments[0]?arguments[0]:0,n=arguments.length>1&&void 0!==arguments[1]?arguments[1]:0,r=arguments.length>2&&void 0!==arguments[2]?arguments[2]:1,e=arguments.length>3&&void 0!==arguments[3]?arguments[3]:1;return t<0||t>1||r<0||r>1?null:f(t-n)<=1e-5&&f(r-e)<=1e-5?s:function(i){if(i<=0)return t>0?i*n/t:0===n&&r>0?i*e/r:0;if(i>=1)return r<1?1+(i-1)*(e-1)/(r-1):1===r&&t<1?1+(i-1)*(n-1)/(t-1):1;for(var o,u=0,a=1;u<a;){var l=c(t,r,o=(u+a)/2);if(f(i-l)<1e-5)break;l<i?u=o:a=o}return c(n,e,o)}}function v(){return 1}function y(t){return 1===t?1:0}function d(){var t=arguments.length>0&&void 0!==arguments[0]?arguments[0]:1,n=arguments.length>1&&void 0!==arguments[1]?arguments[1]:0;if(1===t){if(0===n)return y;if(1===n)return v}var r=1/t;return function(t){return t>=1?1:(t+=n*r)-t%r}}function g(t){var n=arguments.length>1&&void 0!==arguments[1]?arguments[1]:2;if(Number.isInteger(t))return t;var r=Math.pow(10,n);return Math.round(t*r)/r}var p=Math.PI/180;function m(t,n,r){return t>=.5?r:n}function b(t,n,r){return 0===t||n===r?n:t*(r-n)+n}function w(t,n,r){var e=b(t,n,r);return e<=0?0:e}function x(t,n,r){return 0===t?n:1===t?r:{x:b(t,n.x,r.x),y:b(t,n.y,r.y)}}function k(t,n,r){var e=function(t,n,r){return Math.round(b(t,n,r))}(t,n,r);return e<=0?0:e>=255?255:e}function A(t,n,r){return 0===t?n:1===t?r:{r:k(t,n.r,r.r),g:k(t,n.g,r.g),b:k(t,n.b,r.b),a:b(t,null==n.a?1:n.a,null==r.a?1:r.a)}}function _(t,n,r){if(0===t)return n;if(1===t)return r;var e=n.length;if(e!==r.length)return m(t,n,r);for(var i=[],o=0;o<e;o++)i.push(A(t,n[o],r[o]));return i}function S(t,n){for(var r=[],e=0;e<t;e++)r.push(n);return r}function O(t,n){if(--n<=0)return t;var r=(t=Object.assign([],t)).length;do{for(var e=0;e<r;e++)t.push(t[e])}while(--n>0);return t}var M,j=function(){function t(r){n(this,t),this.list=r,this.length=r.length}return e(t,[{key:"setAttribute",value:function(t,n){for(var r=this.list,e=0;e<this.length;e++)r[e].setAttribute(t,n)}},{key:"removeAttribute",value:function(t){for(var n=this.list,r=0;r<this.length;r++)n[r].removeAttribute(t)}},{key:"style",value:function(t,n){for(var r=this.list,e=0;e<this.length;e++)r[e].style[t]=n}}]),t}(),F=/-./g,P=function(t,n){return n.toUpperCase()};function B(t){return"function"==typeof t?t:m}function I(t){return t?"function"==typeof t?t:Array.isArray(t)?function(t){var n=arguments.length>1&&void 0!==arguments[1]?arguments[1]:s;if(!Array.isArray(t))return n;switch(t.length){case 1:return d(t[0])||n;case 2:return d(t[0],t[1])||n;case 4:return h(t[0],t[1],t[2],t[3])||n}return n}(t,null):function(t,n){var r=arguments.length>2&&void 0!==arguments[2]?arguments[2]:s;switch(t){case"linear":return s;case"steps":return d(n.steps||1,n.jump||0)||r;case"bezier":case"cubic-bezier":return h(n.x1||0,n.y1||0,n.x2||0,n.y2||0)||r}return r}(t.type,t.value,null):null}function R(t,n,r){var e=arguments.length>3&&void 0!==arguments[3]&&arguments[3],i=n.length-1;if(t<=n[0].t)return e?[0,0,n[0].v]:n[0].v;if(t>=n[i].t)return e?[i,1,n[i].v]:n[i].v;var o,u=n[0],a=null;for(o=1;o<=i;o++){if(!(t>n[o].t)){a=n[o];break}u=n[o]}return null==a?e?[i,1,n[i].v]:n[i].v:u.t===a.t?e?[o,1,a.v]:a.v:(t=(t-u.t)/(a.t-u.t),u.e&&(t=u.e(t)),e?[o,t,r(t,u.v,a.v)]:r(t,u.v,a.v))}function q(t,n){var r=arguments.length>2&&void 0!==arguments[2]?arguments[2]:null;return t&&t.length?"function"!=typeof n?null:("function"!=typeof r&&(r=null),function(e){var i=R(e,t,n);return null!=i&&r&&(i=r(i)),i}):null}function E(t,n){return t.t-n.t}function T(n,r,e,i,o){var u,a="@"===e[0],l="#"===e[0],f=M[e],s=m;switch(a?(u=e.substr(1),e=u.replace(F,P)):l&&(e=e.substr(1)),t(f)){case"function":if(s=f(i,o,R,I,e,a,r,n),l)return s;break;case"string":s=q(i,B(f));break;case"object":if((s=q(i,B(f.i),f.f))&&"function"==typeof f.u)return f.u(r,s,e,a,n)}return s?function(t,n,r){var e=arguments.length>3&&void 0!==arguments[3]&&arguments[3];if(e)return t instanceof j?function(e){return t.style(n,r(e))}:function(e){return t.style[n]=r(e)};if(Array.isArray(n)){var i=n.length;return function(e){var o=r(e);if(null==o)for(var u=0;u<i;u++)t[u].removeAttribute(n);else for(var a=0;a<i;a++)t[a].setAttribute(n,o)}}return function(e){var i=r(e);null==i?t.removeAttribute(n):t.setAttribute(n,i)}}(r,e,s,a):null}function N(n,r,e,i){if(!i||"object"!==t(i))return null;var o=null,u=null;return Array.isArray(i)?u=function(t){if(!t||!t.length)return null;for(var n=0;n<t.length;n++)t[n].e&&(t[n].e=I(t[n].e));return t.sort(E)}(i):(u=i.keys,o=i.data||null),u?T(n,r,e,u,o):null}function C(t,n,r){if(!r)return null;var e=[];for(var i in r)if(r.hasOwnProperty(i)){var o=N(t,n,i,r[i]);o&&e.push(o)}return e.length?e:null}function z(t,n){if(!n.duration||n.duration<0)return null;var r=function(t,n){if(!n)return null;var r=[];if(Array.isArray(n))for(var e=n.length,i=0;i<e;i++){var o=n[i];if(2===o.length){var u=null;if("string"==typeof o[0])u=t.getElementById(o[0]);else if(Array.isArray(o[0])){u=[];for(var a=0;a<o[0].length;a++)if("string"==typeof o[0][a]){var l=t.getElementById(o[0][a]);l&&u.push(l)}u=u.length?1===u.length?u[0]:new j(u):null}if(u){var f=C(t,u,o[1]);f&&(r=r.concat(f))}}}else for(var s in n)if(n.hasOwnProperty(s)){var c=t.getElementById(s);if(c){var h=C(t,c,n[s]);h&&(r=r.concat(h))}}return r.length?r:null}(t,n.elements);return r?function(t,n){var r=arguments.length>2&&void 0!==arguments[2]?arguments[2]:1/0,e=arguments.length>3&&void 0!==arguments[3]?arguments[3]:1,i=arguments.length>4&&void 0!==arguments[4]&&arguments[4],o=arguments.length>5&&void 0!==arguments[5]?arguments[5]:1,u=t.length,a=e>0?n:0;i&&r%2==0&&(a=n-a);var l=null;return function(f,s){var c=f%n,h=1+(f-c)/n;s*=e,i&&h%2==0&&(s=-s);var v=!1;if(h>r)c=a,v=!0,-1===o&&(c=e>0?0:n);else if(s<0&&(c=n-c),c===l)return!1;l=c;for(var y=0;y<u;y++)t[y](c);return v}}(r,n.duration,n.iterations||1/0,n.direction||1,!!n.alternate,n.fill||1):null}var L=function(){function t(r,e){var i=arguments.length>2&&void 0!==arguments[2]?arguments[2]:{};n(this,t),this._id=0,this._running=!1,this._rollingBack=!1,this._animations=r,this.duration=e.duration,this.alternate=e.alternate,this.fill=e.fill,this.iterations=e.iterations,this.direction=i.direction||1,this.speed=i.speed||1,this.fps=i.fps||100,this.offset=i.offset||0,this.rollbackStartOffset=0}return e(t,[{key:"_rollback",value:function(){var t=this,n=1/0,r=null;this.rollbackStartOffset=this.offset,this._rollingBack||(this._rollingBack=!0,this._running=!0);this._id=window.requestAnimationFrame((function e(i){if(t._rollingBack){null==r&&(r=i);var o=i-r,u=t.rollbackStartOffset-o,a=Math.round(u*t.speed);if(a>t.duration&&n!=1/0){var l=!!t.alternate&&a/t.duration%2>1,f=a%t.duration;a=(f+=l?t.duration:0)||t.duration}var s=t.fps?1e3/t.fps:0,c=Math.max(0,a);if(c<n-s){t.offset=c,n=c;for(var h=t._animations,v=h.length,y=0;y<v;y++)h[y](c,t.direction)}var d=!1;if(t.iterations>0&&-1===t.fill){var g=t.iterations*t.duration,p=g==a;a=p?0:a,t.offset=p?0:t.offset,d=a>g}a>0&&t.offset>=a&&!d?t._id=window.requestAnimationFrame(e):t.stop()}}))}},{key:"_start",value:function(){var t=this,n=arguments.length>0&&void 0!==arguments[0]?arguments[0]:0,r=-1/0,e=null,i={},o=function o(u){t._running=!0,null==e&&(e=u);var a=Math.round((u-e+n)*t.speed),l=t.fps?1e3/t.fps:0;if(a>r+l&&!t._rollingBack){t.offset=a,r=a;for(var f=t._animations,s=f.length,c=0,h=0;h<s;h++)i[h]?c++:(i[h]=f[h](a,t.direction),i[h]&&c++);if(c===s)return void t._stop()}t._id=window.requestAnimationFrame(o)};this._id=window.requestAnimationFrame(o)}},{key:"_stop",value:function(){this._id&&window.cancelAnimationFrame(this._id),this._running=!1,this._rollingBack=!1}},{key:"play",value:function(){!this._rollingBack&&this._running||(this._rollingBack=!1,this.rollbackStartOffset>this.duration&&(this.offset=this.rollbackStartOffset-(this.rollbackStartOffset-this.offset)%this.duration,this.rollbackStartOffset=0),this._start(this.offset))}},{key:"stop",value:function(){this._stop(),this.offset=0,this.rollbackStartOffset=0;var t=this.direction,n=this._animations;window.requestAnimationFrame((function(){for(var r=0;r<n.length;r++)n[r](0,t)}))}},{key:"reachedToEnd",value:function(){return this.iterations>0&&this.offset>=this.iterations*this.duration}},{key:"restart",value:function(){this._stop(),this.offset=0,this._start()}},{key:"pause",value:function(){this._stop()}},{key:"reverse",value:function(){this.direction=-this.direction}}],[{key:"build",value:function(n,r){return(n=function(t,n){if(M=n,!t||!t.root||!Array.isArray(t.animations))return null;for(var r=document.getElementsByTagName("svg"),e=!1,i=0;i<r.length;i++)if(r[i].id===t.root&&!r[i].svgatorAnimation){(e=r[i]).svgatorAnimation=!0;break}if(!e)return null;var o=t.animations.map((function(t){return z(e,t)})).filter((function(t){return!!t}));return o.length?{element:e,animations:o,animationSettings:t.animationSettings,options:t.options||void 0}:null}(n,r))?{el:n.element,options:n.options||{},player:new t(n.animations,n.animationSettings,n.options)}:null}}]),t}();!function(){for(var t=0,n=["ms","moz","webkit","o"],r=0;r<n.length&&!window.requestAnimationFrame;++r)window.requestAnimationFrame=window[n[r]+"RequestAnimationFrame"],window.cancelAnimationFrame=window[n[r]+"CancelAnimationFrame"]||window[n[r]+"CancelRequestAnimationFrame"];window.requestAnimationFrame||(window.requestAnimationFrame=function(n){var r=Date.now(),e=Math.max(0,16-(r-t)),i=window.setTimeout((function(){n(r+e)}),e);return t=r+e,i},window.cancelAnimationFrame=window.clearTimeout)}();var D=/\.0+$/g;function Q(t){return Number.isInteger(t)?t+"":t.toFixed(6).replace(D,"")}function U(t){var n=arguments.length>1&&void 0!==arguments[1]?arguments[1]:" ";return t&&t.length?t.map(Q).join(n):""}function V(t){return t?null==t.a||t.a>=1?"rgb("+t.r+","+t.g+","+t.b+")":"rgba("+t.r+","+t.g+","+t.b+","+t.a+")":"transparent"}var $={f:null,i:function(t,n,r){return 0===t?n:1===t?r:{x:w(t,n.x,r.x),y:w(t,n.y,r.y)}},u:function(t,n){return function(r){var e=n(r);t.setAttribute("rx",Q(e.x)),t.setAttribute("ry",Q(e.y))}}},G={f:null,i:function(t,n,r){return 0===t?n:1===t?r:{width:w(t,n.width,r.width),height:w(t,n.height,r.height)}},u:function(t,n){return function(r){var e=n(r);t.setAttribute("width",Q(e.width)),t.setAttribute("height",Q(e.height))}}},H=Math.sin,Y=Math.cos,Z=Math.acos,J=Math.asin,K=Math.tan,W=Math.atan2,X=Math.PI/180,tt=180/Math.PI,nt=Math.sqrt,rt=function(){function t(){var r=arguments.length>0&&void 0!==arguments[0]?arguments[0]:1,e=arguments.length>1&&void 0!==arguments[1]?arguments[1]:0,i=arguments.length>2&&void 0!==arguments[2]?arguments[2]:0,o=arguments.length>3&&void 0!==arguments[3]?arguments[3]:1,u=arguments.length>4&&void 0!==arguments[4]?arguments[4]:0,a=arguments.length>5&&void 0!==arguments[5]?arguments[5]:0;n(this,t),this.m=[r,e,i,o,u,a],this.i=null,this.w=null,this.s=null}return e(t,[{key:"determinant",get:function(){var t=this.m;return t[0]*t[3]-t[1]*t[2]}},{key:"isIdentity",get:function(){if(null===this.i){var t=this.m;this.i=1===t[0]&&0===t[1]&&0===t[2]&&1===t[3]&&0===t[4]&&0===t[5]}return this.i}},{key:"point",value:function(t,n){var r=this.m;return{x:r[0]*t+r[2]*n+r[4],y:r[1]*t+r[3]*n+r[5]}}},{key:"translateSelf",value:function(){var t=arguments.length>0&&void 0!==arguments[0]?arguments[0]:0,n=arguments.length>1&&void 0!==arguments[1]?arguments[1]:0;if(!t&&!n)return this;var r=this.m;return r[4]+=r[0]*t+r[2]*n,r[5]+=r[1]*t+r[3]*n,this.w=this.s=this.i=null,this}},{key:"rotateSelf",value:function(){var t=arguments.length>0&&void 0!==arguments[0]?arguments[0]:0;if(t%=360){var n=H(t*=X),r=Y(t),e=this.m,i=e[0],o=e[1];e[0]=i*r+e[2]*n,e[1]=o*r+e[3]*n,e[2]=e[2]*r-i*n,e[3]=e[3]*r-o*n,this.w=this.s=this.i=null}return this}},{key:"scaleSelf",value:function(){var t=arguments.length>0&&void 0!==arguments[0]?arguments[0]:1,n=arguments.length>1&&void 0!==arguments[1]?arguments[1]:1;if(1!==t||1!==n){var r=this.m;r[0]*=t,r[1]*=t,r[2]*=n,r[3]*=n,this.w=this.s=this.i=null}return this}},{key:"skewSelf",value:function(t,n){if(n%=360,(t%=360)||n){var r=this.m,e=r[0],i=r[1],o=r[2],u=r[3];t&&(t=K(t*X),r[2]+=e*t,r[3]+=i*t),n&&(n=K(n*X),r[0]+=o*n,r[1]+=u*n),this.w=this.s=this.i=null}return this}},{key:"resetSelf",value:function(){var t=arguments.length>0&&void 0!==arguments[0]?arguments[0]:1,n=arguments.length>1&&void 0!==arguments[1]?arguments[1]:0,r=arguments.length>2&&void 0!==arguments[2]?arguments[2]:0,e=arguments.length>3&&void 0!==arguments[3]?arguments[3]:1,i=arguments.length>4&&void 0!==arguments[4]?arguments[4]:0,o=arguments.length>5&&void 0!==arguments[5]?arguments[5]:0,u=this.m;return u[0]=t,u[1]=n,u[2]=r,u[3]=e,u[4]=i,u[5]=o,this.w=this.s=this.i=null,this}},{key:"recomposeSelf",value:function(){var t=arguments.length>0&&void 0!==arguments[0]?arguments[0]:null,n=arguments.length>1&&void 0!==arguments[1]?arguments[1]:null,r=arguments.length>2&&void 0!==arguments[2]?arguments[2]:null,e=arguments.length>3&&void 0!==arguments[3]?arguments[3]:null,i=arguments.length>4&&void 0!==arguments[4]?arguments[4]:null;return this.isIdentity||this.resetSelf(),t&&(t.x||t.y)&&this.translateSelf(t.x,t.y),n&&this.rotateSelf(n),r&&(r.x&&this.skewSelf(r.x,0),r.y&&this.skewSelf(0,r.y)),!e||1===e.x&&1===e.y||this.scaleSelf(e.x,e.y),i&&(i.x||i.y)&&this.translateSelf(i.x,i.y),this}},{key:"decompose",value:function(){var t=arguments.length>0&&void 0!==arguments[0]?arguments[0]:0,n=arguments.length>1&&void 0!==arguments[1]?arguments[1]:0,r=this.m,e=r[0]*r[0]+r[1]*r[1],i=[[r[0],r[1]],[r[2],r[3]]],o=nt(e);if(0===o)return{origin:{x:r[4],y:r[5]},translate:{x:t,y:n},scale:{x:0,y:0},skew:{x:0,y:0},rotate:0};i[0][0]/=o,i[0][1]/=o;var u=r[0]*r[3]-r[1]*r[2]<0;u&&(o=-o);var a=i[0][0]*i[1][0]+i[0][1]*i[1][1];i[1][0]-=i[0][0]*a,i[1][1]-=i[0][1]*a;var l=nt(i[1][0]*i[1][0]+i[1][1]*i[1][1]);if(0===l)return{origin:{x:r[4],y:r[5]},translate:{x:t,y:n},scale:{x:o,y:0},skew:{x:0,y:0},rotate:0};i[1][0]/=l,i[1][1]/=l,a/=l;var f=0;return i[1][1]<0?(f=Z(i[1][1])*tt,i[0][1]<0&&(f=360-f)):f=J(i[0][1])*tt,u&&(f=-f),a=W(a,nt(i[0][0]*i[0][0]+i[0][1]*i[0][1]))*tt,u&&(a=-a),{origin:{x:r[4],y:r[5]},translate:{x:t,y:n},scale:{x:o,y:l},skew:{x:a,y:0},rotate:f}}},{key:"toString",value:function(){return null===this.s&&(this.s="matrix("+this.m.map(it).join(" ")+")"),this.s}}]),t}(),et=/\.0+$/;function it(t){return Number.isInteger(t)?t:t.toFixed(14).replace(et,"")}function ot(t,n,r){return t+(n-t)*r}function ut(t,n,r){var e=arguments.length>3&&void 0!==arguments[3]&&arguments[3],i={x:ot(t.x,n.x,r),y:ot(t.y,n.y,r)};return e&&(i.a=at(t,n)),i}function at(t,n){return Math.atan2(n.y-t.y,n.x-t.x)}Object.freeze({M:2,L:2,Z:0,H:1,V:1,C:6,Q:4,T:2,S:4,A:7});var lt={},ft=null;function st(n){var r=function(){if(ft)return ft;if("object"!==("undefined"==typeof document?"undefined":t(document)))return{};var n=document.createElementNS("http://www.w3.org/2000/svg","svg");return n.style.position="absolute",n.style.opacity="0.01",n.style.zIndex="-9999",n.style.left="-9999px",n.style.width="1px",n.style.height="1px",ft={svg:n}}().svg;if(!r)return function(t){return null};var e=document.createElementNS(r.namespaceURI,"path");e.setAttributeNS(null,"d",n),e.setAttributeNS(null,"fill","none"),e.setAttributeNS(null,"stroke","none"),r.appendChild(e);var i=e.getTotalLength();return function(t){var n=e.getPointAtLength(i*t);return{x:n.x,y:n.y}}}function ct(t){return lt[t]?lt[t]:lt[t]=st(t)}function ht(t,n,r,e){if(!t||!e)return!1;var i=["M",t.x,t.y];if(n&&r&&(i.push("C"),i.push(n.x),i.push(n.y),i.push(r.x),i.push(r.y)),n?!r:r){var o=n||r;i.push("Q"),i.push(o.x),i.push(o.y)}return n||r||i.push("L"),i.push(e.x),i.push(e.y),i.join(" ")}function vt(t,n,r,e){var i=arguments.length>4&&void 0!==arguments[4]?arguments[4]:1,o=ht(t,n,r,e),u=ct(o);try{return u(i)}catch(t){return null}}function yt(t,n,r,e){var i=1-e;return i*i*t+2*i*e*n+e*e*r}function dt(t,n,r,e){return 2*(1-e)*(n-t)+2*e*(r-n)}function gt(t,n,r,e){var i=arguments.length>4&&void 0!==arguments[4]&&arguments[4],o=vt(t,n,null,r,e);return o||(o={x:yt(t.x,n.x,r.x,e),y:yt(t.y,n.y,r.y,e)}),i&&(o.a=pt(t,n,r,e)),o}function pt(t,n,r,e){return Math.atan2(dt(t.y,n.y,r.y,e),dt(t.x,n.x,r.x,e))}function mt(t,n,r,e,i){var o=i*i;return i*o*(e-t+3*(n-r))+3*o*(t+r-2*n)+3*i*(n-t)+t}function bt(t,n,r,e,i){var o=1-i;return 3*(o*o*(n-t)+2*o*i*(r-n)+i*i*(e-r))}function wt(t,n,r,e,i){var o=arguments.length>5&&void 0!==arguments[5]&&arguments[5],u=vt(t,n,r,e,i);return u||(u={x:mt(t.x,n.x,r.x,e.x,i),y:mt(t.y,n.y,r.y,e.y,i)}),o&&(u.a=xt(t,n,r,e,i)),u}function xt(t,n,r,e,i){return Math.atan2(bt(t.y,n.y,r.y,e.y,i),bt(t.x,n.x,r.x,e.x,i))}function kt(t,n,r){var e=arguments.length>3&&void 0!==arguments[3]&&arguments[3];if(_t(n)){if(St(r))return gt(n,r.start,r,t,e)}else if(_t(r)){if(n.end)return gt(n,n.end,r,t,e)}else{if(n.end)return r.start?wt(n,n.end,r.start,r,t,e):gt(n,n.end,r,t,e);if(r.start)return gt(n,r.start,r,t,e)}return ut(n,r,t,e)}function At(t,n,r){var e=kt(t,n,r,!0);return e.a=function(t){var n=arguments.length>1&&void 0!==arguments[1]&&arguments[1];return n?t+Math.PI:t}(e.a)/p,e}function _t(t){return!t.type||"corner"===t.type}function St(t){return null!=t.start&&!_t(t)}var Ot=new rt;var Mt={f:Q,i:b},jt={f:Q,i:function(t,n,r){var e=b(t,n,r);return e<=0?0:e>=1?1:e}};function Ft(t,n,r,e,i,o,u,a){return n=function(t,n,r){for(var e,i,o,u=t.length-1,a={},l=0;l<=u;l++)(e=t[l]).e&&(e.e=n(e.e)),e.v&&"g"===(i=e.v).t&&i.r&&(o=r.getElementById(i.r))&&(a[i.r]=o.querySelectorAll("stop"));return a}(t,e,a),function(e){var i,o=r(e,t,Pt);return o?"c"===o.t?V(o.v):"g"===o.t?(n[o.r]&&function(t,n){for(var r=0,e=t.length;r<e;r++)t[r].setAttribute("stop-color",V(n[r]))}(n[o.r],o.v),(i=o.r)?"url(#"+i+")":"none"):"none":"none"}}function Pt(t,n,r){if(0===t)return n;if(1===t)return r;if(n&&r){var e=n.t;if(e===r.t)switch(n.t){case"c":return{t:e,v:A(t,n.v,r.v)};case"g":if(n.r===r.r)return{t:e,v:_(t,n.v,r.v),r:n.r}}}return m(t,n,r)}var Bt={fill:Ft,"fill-opacity":jt,stroke:Ft,"stroke-opacity":jt,"stroke-width":Mt,"stroke-dashoffset":{f:Q,i:b},"stroke-dasharray":{f:function(t){var n=arguments.length>1&&void 0!==arguments[1]?arguments[1]:" ";return t&&t.length>0&&(t=t.map((function(t){return Math.floor(1e4*t)/1e4}))),U(t,n)},i:function(t,n,r){var e,i,o,u=n.length,a=r.length;if(u!==a)if(0===u)n=S(u=a,0);else if(0===a)a=u,r=S(u,0);else{var l=(o=(e=u)*(i=a)/function(t,n){for(var r;n;)r=n,n=t%n,t=r;return t||1}(e,i))<0?-o:o;n=O(n,Math.floor(l/u)),r=O(r,Math.floor(l/a)),u=a=l}for(var f=[],s=0;s<u;s++)f.push(g(w(t,n[s],r[s]),6));return f}},opacity:jt,transform:function(n,r,e,i){if(!(n=function(n,r){if(!n||"object"!==t(n))return null;var e=!1;for(var i in n)n.hasOwnProperty(i)&&(n[i]&&n[i].length?(n[i].forEach((function(t){t.e&&(t.e=r(t.e))})),e=!0):delete n[i]);return e?n:null}(n,i)))return null;var o=function(t,i,o){var u=arguments.length>3&&void 0!==arguments[3]?arguments[3]:null;return n[t]?e(i,n[t],o):r&&r[t]?r[t]:u};return r&&r.a&&n.o?function(t){var r=e(t,n.o,At);return Ot.recomposeSelf(r,o("r",t,b,0)+r.a,o("k",t,x),o("s",t,x),o("t",t,x)).toString()}:function(t){return Ot.recomposeSelf(o("o",t,kt,null),o("r",t,b,0),o("k",t,x),o("s",t,x),o("t",t,x)).toString()}},r:Mt,"#size":G,"#radius":$,_:function(t,n){if(Array.isArray(t))for(var r=0;r<t.length;r++)this[t[r]]=n;else this[t]=n}};return function(t){!function(t,n){if("function"!=typeof n&&null!==n)throw new TypeError("Super expression must either be null or a function");t.prototype=Object.create(n&&n.prototype,{constructor:{value:t,writable:!0,configurable:!0}}),n&&o(t,n)}(u,t);var r=a(u);function u(){return n(this,u),r.apply(this,arguments)}return e(u,null,[{key:"build",value:function(t){var n=l(i(u),"build",this).call(this,t,Bt);n.el,n.options;var r=n.player;return function(t){t.play()}(r),r}}]),u}(L)}));
__SVGATOR_PLAYER__.build({"root":"emuxpmm36vl1","animations":[{"duration":3000,"direction":1,"iterations":0,"fill":1,"alternate":false,"elements":{"emuxpmm36vl10":{"transform":{"data":{"o":{"x":245.57733917236328,"y":508.5773468017578,"type":"corner"},"t":{"x":-245.57733917236328,"y":-508.5773468017578}},"keys":{"s":[{"t":300,"v":{"x":0,"y":0}},{"t":1800,"v":{"x":1,"y":1}}]}},"opacity":[{"t":0,"v":0},{"t":800,"v":1}]},"emuxpmm36vl11":{"transform":{"data":{"o":{"x":138.69427871704102,"y":441.2410888671875,"type":"corner"},"t":{"x":-138.69427871704102,"y":-441.2410888671875}},"keys":{"s":[{"t":1500,"v":{"x":0,"y":0}},{"t":3000,"v":{"x":1,"y":1}}]}},"opacity":[{"t":1100,"v":0},{"t":1900,"v":1}]},"emuxpmm36vl12":{"transform":{"data":{"o":{"x":400.6335906982422,"y":477.41294860839844,"type":"corner"},"t":{"x":-400.6335906982422,"y":-477.41294860839844}},"keys":{"s":[{"t":1500,"v":{"x":0,"y":0}},{"t":3000,"v":{"x":1,"y":1}}]}},"opacity":[{"t":1100,"v":0},{"t":1900,"v":1}]},"emuxpmm36vl13":{"transform":{"data":{"o":{"x":529.9402008056641,"y":410.2709045410156,"type":"corner"},"t":{"x":-529.9402008056641,"y":-410.2709045410156}},"keys":{"s":[{"t":1500,"v":{"x":0,"y":0}},{"t":3000,"v":{"x":1,"y":1}}]}},"opacity":[{"t":1100,"v":0},{"t":1900,"v":1}]},"emuxpmm36vl14":{"transform":{"data":{"o":{"x":490.9322967529297,"y":300.3648986816406,"type":"corner"},"t":{"x":-490.9322967529297,"y":-300.3648986816406}},"keys":{"s":[{"t":1500,"v":{"x":0,"y":0}},{"t":3000,"v":{"x":1,"y":1}}]}},"opacity":[{"t":1100,"v":0},{"t":1900,"v":1}]},"emuxpmm36vl15":{"transform":{"data":{"o":{"x":107.3974380493164,"y":315.9027328491211,"type":"corner"},"t":{"x":-107.3974380493164,"y":-315.9027328491211}},"keys":{"s":[{"t":1500,"v":{"x":0,"y":0}},{"t":3000,"v":{"x":1,"y":1}}]}},"opacity":[{"t":1100,"v":0},{"t":1900,"v":1}]},"emuxpmm36vl16":{"transform":{"data":{"o":{"x":120.97363662719727,"y":201.48889923095703,"type":"corner"},"t":{"x":-120.97363662719727,"y":-201.48889923095703}},"keys":{"s":[{"t":1500,"v":{"x":0,"y":0}},{"t":3000,"v":{"x":1,"y":1}}]}},"opacity":[{"t":1100,"v":0},{"t":1900,"v":1}]},"emuxpmm36vl17":{"transform":{"data":{"o":{"x":251.10623931884766,"y":130.18619537353516,"type":"corner"},"t":{"x":-251.10623931884766,"y":-130.18619537353516}},"keys":{"s":[{"t":1500,"v":{"x":0,"y":0}},{"t":3000,"v":{"x":1,"y":1}}]}},"opacity":[{"t":1100,"v":0},{"t":1900,"v":1}]},"emuxpmm36vl18":{"transform":{"data":{"o":{"x":425.6601867675781,"y":136.79981231689453,"type":"corner"},"t":{"x":-425.6601867675781,"y":-136.79981231689453}},"keys":{"s":[{"t":1500,"v":{"x":0,"y":0}},{"t":3000,"v":{"x":1,"y":1}}]}},"opacity":[{"t":1100,"v":0},{"t":1900,"v":1}]},"emuxpmm36vl19":{"transform":{"data":{"o":{"x":304.7464065551758,"y":233.4261703491211,"type":"corner"},"t":{"x":-304.7464065551758,"y":-233.4261703491211}},"keys":{"s":[{"t":1500,"v":{"x":0,"y":0}},{"t":3000,"v":{"x":1,"y":1}}]}},"opacity":[{"t":1100,"v":0},{"t":1900,"v":1}]},"emuxpmm36vl20":{"transform":{"data":{"o":{"x":304.7464065551758,"y":233.4261703491211,"type":"corner"},"t":{"x":-304.7464065551758,"y":-233.4261703491211}},"keys":{"s":[{"t":400,"v":{"x":0,"y":0}},{"t":1900,"v":{"x":1,"y":1}}]}},"opacity":[{"t":200,"v":0},{"t":1000,"v":1}]},"emuxpmm36vl21":{"transform":{"data":{"o":{"x":303.2022781327148,"y":384.15057190320306,"type":"corner"},"t":{"x":-308.21858978271484,"y":-383.9944152832031}},"keys":{"s":[{"t":300,"v":{"x":0,"y":0}},{"t":1800,"v":{"x":1,"y":1}}]}},"opacity":[{"t":100,"v":0},{"t":900,"v":1}]},"emuxpmm36vl22":{"transform":{"data":{"o":{"x":186.28914642333984,"y":254.8284683227539,"type":"corner"},"t":{"x":-186.28914642333984,"y":-254.8284683227539}},"keys":{"s":[{"t":300,"v":{"x":0,"y":0}},{"t":1800,"v":{"x":1,"y":1}}]}},"opacity":[{"t":100,"v":0},{"t":900,"v":1}]},"emuxpmm36vl23":{"transform":{"data":{"o":{"x":372.0019836425781,"y":298.99842834472656,"type":"corner"},"t":{"x":-372.0019836425781,"y":-298.99842834472656}},"keys":{"s":[{"t":600,"v":{"x":0,"y":0}},{"t":2100,"v":{"x":1,"y":1}}]}},"opacity":[{"t":1100,"v":0},{"t":1900,"v":1}]},"emuxpmm36vl24":{"transform":{"data":{"o":{"x":242.50324249267578,"y":302.72779846191406,"type":"corner"},"t":{"x":-242.50324249267578,"y":-302.72779846191406}},"keys":{"s":[{"t":400,"v":{"x":0,"y":0}},{"t":1900,"v":{"x":1,"y":1}}]}},"opacity":[{"t":400,"v":0},{"t":1200,"v":1}]},"emuxpmm36vl25":{"transform":{"data":{"o":{"x":200.16764068603516,"y":221.15464782714844,"type":"corner"},"t":{"x":-200.16764068603516,"y":-221.15464782714844}},"keys":{"s":[{"t":700,"v":{"x":0,"y":0}},{"t":2200,"v":{"x":1,"y":1}}]}},"opacity":[{"t":400,"v":0},{"t":1200,"v":1}]},"emuxpmm36vl26":{"transform":{"data":{"o":{"x":208.10299682617188,"y":209.24747467041016,"type":"corner"},"t":{"x":-208.10299682617188,"y":-209.24747467041016}},"keys":{"s":[{"t":800,"v":{"x":0,"y":0}},{"t":2300,"v":{"x":1,"y":1}}]}},"opacity":[{"t":1100,"v":0},{"t":1900,"v":1}]},"emuxpmm36vl27":{"opacity":[{"t":1100,"v":0},{"t":1900,"v":1}]},"emuxpmm36vl28":{"transform":{"data":{"o":{"x":408.39764404296875,"y":220.8146514892578,"type":"corner"},"t":{"x":-408.39764404296875,"y":-220.8146514892578}},"keys":{"s":[{"t":800,"v":{"x":0,"y":0}},{"t":2300,"v":{"x":1,"y":1}}]}},"opacity":[{"t":1100,"v":0},{"t":1900,"v":1}]},"emuxpmm36vl29":{"transform":{"data":{"o":{"x":398.7237243652344,"y":234.11748504638672,"type":"corner"},"t":{"x":-398.7237243652344,"y":-234.11748504638672}},"keys":{"s":[{"t":700,"v":{"x":0,"y":0}},{"t":1700,"v":{"x":1,"y":1}}]}},"opacity":[{"t":1100,"v":0},{"t":1900,"v":1}]},"emuxpmm36vl30":{"transform":{"data":{"o":{"x":145.8479118347168,"y":135.45463180541992,"type":"corner"},"t":{"x":-145.8479118347168,"y":-135.45463180541992}},"keys":{"s":[{"t":0,"v":{"x":0,"y":0}},{"t":1300,"v":{"x":1,"y":1}}]}},"opacity":[{"t":400,"v":0},{"t":1300,"v":1}]},"emuxpmm36vl32":{"transform":{"data":{"o":{"x":301.4381561279297,"y":595.92919921875,"type":"corner"},"t":{"x":-301.4381561279297,"y":-595.92919921875}},"keys":{"s":[{"t":0,"v":{"x":0.5,"y":0.5}},{"t":1330,"v":{"x":1,"y":1}},{"t":3000,"v":{"x":0.5,"y":0.5}}]}}},"emuxpmm36vl33":{"transform":{"data":{"o":{"x":330.86280822753906,"y":628.6142272949219,"type":"corner"},"t":{"x":-330.86280822753906,"y":-628.6142272949219}},"keys":{"s":[{"t":0,"v":{"x":2,"y":2}},{"t":1330,"v":{"x":1,"y":1}},{"t":3000,"v":{"x":2,"y":2}}]}}}}}],"options":{"start":"load","hover":"freeze","click":"freeze","scroll":25,"font":"embed","exportedIds":"unique","title":"PR illustration"},"animationSettings":{"duration":3000,"direction":1,"iterations":0,"fill":1,"alternate":false}})]]></script></svg>