<svg id="Capa_1" enable-background="new 0 0 511.562 511.562" height="512" viewBox="0 0 511.562 511.562" width="512" xmlns="http://www.w3.org/2000/svg"><g><g><path d="m233.165 420.553-83.5 83.51c158.56-8.05 215.12-85.1 149.74-151.12l-140.79-140.79c-66.01-65.37-143.06-8.81-151.11 149.75l83.5-83.5" fill="#dd636e"/><path d="m233.165 420.556c192.931-192.931 285.873-313.874 268.916-411.074-97.2-16.957-218.143 75.985-411.074 268.916z" fill="#f6f1f1"/><path d="m502.081 9.482c-57.35 22.89-183.63 110.5-376.56 303.43l-34.51-34.51c192.93-192.94 313.87-285.88 411.07-268.92z" fill="#dfdfdf"/><path d="m195.523 354.63c-41.539 41.539-106.278 89.001-116.934 78.345s36.805-75.395 78.345-116.934 61.426-44.149 72.083-33.493c10.655 10.655 8.045 30.542-33.494 72.082z" fill="#dd636e"/><path d="m229.013 282.54c-3.74-3.74-18.02 4.48-59.56 46.02s-94.6 100.67-90.86 104.41c-10.66-10.65 36.8-75.39 78.34-116.93s61.43-44.15 72.08-33.5z" fill="#c10a54"/><g><path d="m374.351 205.251c0 25.922-14.496 48.456-35.824 59.937-9.591 5.17-20.561 8.102-32.216 8.102s-22.625-2.932-32.216-8.102c-21.328-11.481-35.824-34.015-35.824-59.937 0-37.577 30.462-68.039 68.039-68.039s68.041 30.461 68.041 68.039z" fill="#61a2f9"/><path d="m338.528 265.188c-9.591 5.17-20.561 8.102-32.216 8.102s-22.625-2.932-32.216-8.102c2.567-15.473 16.012-27.274 32.216-27.274s29.649 11.801 32.216 27.274z" fill="#f6f1f1"/><circle cx="306.313" cy="205.25" fill="#f1d0a5" r="32.666"/><path d="m306.313 172.584c-8.63 0-16.472 3.352-22.312 8.818 0 0 19.605 23.847 54.978 23.848-.001-18.041-14.626-32.666-32.666-32.666z" fill="#f6e266"/></g></g><g><path d="m509.465 8.189c-.544-3.116-2.984-5.556-6.101-6.099-49.639-8.656-105.299 9.437-175.143 56.942-46.407 31.565-100.363 76.883-169.638 142.806-19.731-17.56-40.913-25.681-61.632-23.53-4.12.428-7.112 4.115-6.685 8.235.429 4.119 4.111 7.112 8.235 6.685 16.088-1.673 32.98 4.886 49.2 19.013-19.432 18.663-40.043 38.897-61.999 60.853l-69.29 69.291c3.024-32.666 9.279-61.149 18.656-84.883 10.075-25.501 23.598-44.536 39.105-55.046 3.429-2.324 4.324-6.987 2.001-10.416-2.326-3.43-6.989-4.325-10.417-2.001-37.539 25.444-61.501 87.945-65.741 171.479-.157 3.099 1.609 5.974 4.445 7.234.979.435 2.016.646 3.043.646 1.95 0 3.868-.76 5.306-2.197l78.196-78.196 41.727 41.728c-14.911 16.614-29.325 34.641-40.712 51.086-27.269 39.378-24.337 50.858-18.736 56.459 2.042 2.042 4.862 3.728 9.53 3.728 8.142 0 21.901-5.132 46.929-22.464 16.444-11.387 34.472-25.802 51.085-40.713l41.727 41.727-78.195 78.204c-2.193 2.194-2.811 5.513-1.55 8.348 1.207 2.719 3.9 4.456 6.852 4.455.127 0 .255-.003.382-.01 94.566-4.801 161.546-34.817 179.173-80.293 9.878-25.486 2.938-53.069-19.506-78.291 90.218-94.864 143.523-162.839 173.099-219.72 1.911-3.675.48-8.203-3.194-10.114-3.674-1.909-8.203-.481-10.114 3.194-3.428 6.593-7.191 13.346-11.304 20.281l-93.241-93.241c50.849-30.209 92.976-42.189 130.537-37.307 3.331 25.604-1.213 53.195-13.832 84.135-1.564 3.835.276 8.213 4.112 9.777 3.833 1.565 8.213-.277 9.776-4.112 14.59-35.773 19.141-67.722 13.914-97.673zm-383.892 395.948c-25.367 18.106-36.686 21.911-40.818 22.671.761-4.134 4.566-15.454 22.671-40.819 15.357-21.517 35.848-45.683 54.811-64.646 28.285-28.285 44.415-36.511 53.609-36.511 3.563 0 6.084 1.236 7.866 3.019 2.539 2.539 4.964 6.699 1.149 16.417-4.467 11.38-16.123 26.54-34.643 45.06-18.961 18.961-43.128 39.451-64.645 54.809zm189.658 21.701c-7.023 18.121-24.735 34.167-51.221 46.406-25.061 11.58-57.552 19.4-94.819 22.896l69.208-69.215c.023-.022.048-.041.071-.064 21.874-21.874 42.112-42.496 60.844-62.011 18.13 20.738 23.646 42.05 15.917 61.988zm134.893-266.089c-39.726 62.503-107.277 140.2-216.962 250.199l-41.297-41.298c3.071-2.915 6.071-5.827 8.961-8.717 20.269-20.269 32.698-36.685 37.998-50.185 6.523-16.618 1.15-26.848-4.505-32.504-22.053-22.05-57.753 8.556-82.69 33.493-2.89 2.89-5.802 5.89-8.717 8.961l-41.295-41.295c102.688-102.4 175.341-166.36 235.041-206.967 5.145-3.499 10.195-6.813 15.172-9.98z"/><path d="m230.774 205.25c0 41.652 33.887 75.539 75.538 75.539 41.652 0 75.539-33.886 75.539-75.539s-33.887-75.539-75.539-75.539c-41.651 0-75.538 33.887-75.538 75.539zm52.229 55.865c3.756-9.338 12.82-15.692 23.289-15.7h.021s.014 0 .021 0c10.469.009 19.532 6.363 23.288 15.701-7.178 3.006-15.052 4.673-23.309 4.673-8.258 0-16.132-1.667-23.31-4.674zm-1.856-55.865c0-4.642 1.269-8.991 3.469-12.728 8.081 7.01 23.637 17.551 45.847 19.787-3.057 10.441-12.708 18.092-24.12 18.106-.01 0-.021-.001-.031-.001s-.021.001-.031.001c-13.861-.017-25.134-11.299-25.134-25.165zm14.67-22.864c3.197-1.473 6.75-2.302 10.495-2.302 11.057 0 20.464 7.17 23.833 17.103-16.226-2.068-27.834-9.46-34.328-14.801zm71.034 22.864c0 19.721-9.482 37.265-24.123 48.325-2.94-6.345-7.459-11.727-13.027-15.702 10.149-7.297 16.777-19.197 16.777-32.623 0-22.147-18.019-40.166-40.166-40.166s-40.165 18.018-40.165 40.166c0 13.426 6.628 25.325 16.776 32.622-5.568 3.975-10.087 9.357-13.028 15.702-14.64-11.06-24.122-28.604-24.122-48.324 0-33.381 27.157-60.539 60.538-60.539 33.383 0 60.54 27.158 60.54 60.539z"/></g></g></svg>