<?xml version="1.0" encoding="iso-8859-1"?>
<!-- Generator: Adobe Illustrator 19.0.0, SVG Export Plug-In . SVG Version: 6.00 Build 0)  -->
<svg version="1.1" id="Capa_1" xmlns="http://www.w3.org/2000/svg" xmlns:xlink="http://www.w3.org/1999/xlink" x="0px" y="0px"
	 viewBox="0 0 512.001 512.001" style="enable-background:new 0 0 512.001 512.001;" xml:space="preserve">
<path style="fill:#FEEA68;" d="M158.445,305.535L158.445,305.535c-7.787,0-14.507-5.458-16.104-13.079
	c-13.01-62.066-61.52-110.576-123.583-123.586c-7.62-1.597-13.079-8.318-13.079-16.104s5.458-14.507,13.079-16.104
	c62.066-13.01,110.577-61.52,123.586-123.584C143.942,5.458,150.662,0,158.449,0s14.507,5.458,16.104,13.078
	c13.01,62.066,61.521,110.577,123.585,123.588c7.619,1.597,13.078,8.318,13.078,16.104c0,7.787-5.458,14.507-13.079,16.104
	c-62.065,13.009-110.577,61.518-123.588,123.583C172.952,300.077,166.232,305.535,158.445,305.535z"/>
<path style="fill:#FECF12;" d="M298.138,136.665c-62.065-13.011-110.576-61.522-123.585-123.588C172.956,5.458,166.236,0,158.449,0
	h-0.001v305.535c7.785-0.001,14.505-5.458,16.102-13.078c13.011-62.065,61.523-110.575,123.588-123.583
	c7.62-1.598,13.079-8.318,13.079-16.104C311.216,144.983,305.758,138.262,298.138,136.665z"/>
<g>
	<path style="fill:#FEEA68;" d="M196.604,512L196.604,512c-7.787,0-14.507-5.458-16.104-13.079
		c-6.13-29.243-28.987-52.1-58.228-58.23c-7.62-1.597-13.079-8.318-13.079-16.104c0-7.786,5.458-14.507,13.079-16.104
		c29.242-6.13,52.099-28.985,58.23-58.229c1.597-7.62,8.318-13.078,16.104-13.078l0,0c7.787,0,14.507,5.458,16.104,13.079
		c6.131,29.243,28.987,52.1,58.229,58.229c7.62,1.598,13.079,8.318,13.079,16.104c0,7.786-5.458,14.507-13.079,16.104
		c-29.243,6.13-52.1,28.986-58.231,58.229C211.111,506.543,204.39,512,196.604,512z"/>
	<path style="fill:#FEEA68;" d="M398.433,380.125L398.433,380.125c-7.787,0-14.507-5.458-16.104-13.079
		c-8.285-39.526-39.178-70.419-78.703-78.705c-7.62-1.598-13.079-8.318-13.079-16.104s5.458-14.507,13.079-16.104
		c39.526-8.285,70.419-39.178,78.705-78.704c1.597-7.62,8.318-13.078,16.104-13.078l0,0c7.787,0,14.507,5.458,16.104,13.079
		c8.285,39.525,39.178,70.419,78.704,78.705c7.619,1.597,13.078,8.318,13.078,16.104c0,7.786-5.458,14.506-13.079,16.104
		c-39.525,8.284-70.418,39.177-78.705,78.703C412.94,374.668,406.22,380.125,398.433,380.125z"/>
</g>
<g>
	<path style="fill:#FECF12;" d="M493.244,256.136c-39.526-8.286-70.419-39.18-78.704-78.705c-1.597-7.62-8.317-13.079-16.104-13.079
		h-0.001v215.773c7.785,0,14.506-5.458,16.103-13.078c8.287-39.526,39.18-70.419,78.705-78.703
		c7.62-1.598,13.079-8.318,13.079-16.104C506.322,264.453,500.863,257.733,493.244,256.136z"/>
	<path style="fill:#FECF12;" d="M270.939,408.485c-29.242-6.13-52.098-28.987-58.229-58.229c-1.597-7.62-8.317-13.079-16.104-13.079
		l0,0v174.823c7.785-0.001,14.505-5.458,16.102-13.078c6.131-29.243,28.988-52.099,58.231-58.229
		c7.62-1.598,13.079-8.318,13.079-16.104S278.559,410.082,270.939,408.485z"/>
</g>
<g>
</g>
<g>
</g>
<g>
</g>
<g>
</g>
<g>
</g>
<g>
</g>
<g>
</g>
<g>
</g>
<g>
</g>
<g>
</g>
<g>
</g>
<g>
</g>
<g>
</g>
<g>
</g>
<g>
</g>
</svg>
