<svg xmlns="https://www.w3.org/2000/svg" xmlns:xlink="https://www.w3.org/1999/xlink" viewBox="0 0 110.20017 157.71192">
    <g>
        <g>
            <g>
                <a xlink:href="https://nutcrackeragency.com/new-site/pr/" class="pr">
                    <path fill="#fae101" d="M.93 89.6S40.6 67.75 45.76 93c0 0 1.36 7.3-3.3 11.2 0 0-15.4 14-41.53-14.62"></path>
                </a>
            </g>
            <g>
                <a xlink:href="https://nutcrackeragency.com/new-site/lead-generation/" class="lead-generation">
                    <path fill="#2ba5a2" d="M106.28 107.97S64.03 91.7 62.33 117.4c0 0-.36 7.42 4.78 10.67 0 0 17.14 11.77 39.2-20.1"></path>
                </a>
            </g>
            <g>
                <a xlink:href="https://nutcrackeragency.com/new-site/design/" class="design">
                    <path fill="#bcc9c9" d="M110.16 62.38s-45.26 1.2-36.96 25.6c0 0 2.53 7 8.52 8.02 0 0 20.33 4.28 28.43-33.62"></path>
                </a>
            </g>
            <g>
                <a xlink:href="https://nutcrackeragency.com/new-site/content/" class="content">
                    <path fill="#fae101" d="M99.4 22.22S55.3 32.54 68.36 54.76c0 0 3.9 6.34 9.97 6.13 0 0 20.78.1 21.07-38.67"></path>
                </a>
            </g>
            <g>
                <a xlink:href="https://nutcrackeragency.com/new-site/marketing/" class="marketing">
                    <path fill="#8e1b55" d="M37.1 1.32S25.12 45 50.86 44.12c0 0 7.43-.4 10.14-5.84 0 0 10-18.22-23.9-36.96"></path>
                </a>
            </g>
            <g>
                <a xlink:href="https://nutcrackeragency.com/new-site/social-media/" class="social-media">
                    <path fill="#2ba5a2" d="M6.25 38.86s45.18 2.9 35.98 26.96c0 0-2.8 6.9-8.82 7.7 0 0-20.47 3.5-27.15-34.66"></path>
                </a>
            </g>
            <g>
                <path fill="#fbe100" d="M50.8 143.97s5.72-2.3 8.07 3.84v5.1s-3.33 2.03-7.94.63z"></path>
            </g>
            <g>
                <path fill="#4c4c4c" d="M54.78 143.74l-.12-.25v-.4l-.25-.14-.3-.12-.23-.28h-.5l-.64-1.05-.16.34-.17-.02-.62.93-.3 1.34-.35.55.34 5.84.76 4.03 1.5 1.53 1.05.47s.2.07.16-1.15c0 0 .15-.36.24-.02 0 0-.03 1.4.2 1.32l.98-.64 2.26-3.47 1.2-4.85v-4.3l-1.03-.98-.15.48-.2.25-.08.62-.25.05-.17 1.3h-.25l-.1.42s1.17 1.53 1.23 2.27c0 0-.15 3.36-2.08 5.3l-.86.56s-1.28.5-2.86.02l-.43-1.1-.13-.47.08-.67-.33-1.15-.37-4.46s-.06-1-.06-1.1c0-.07.05-.38.05-.38l.08-.56s1.7-.33 2.87-.08"></path>
            </g>
            <g>
                <path fill="#2ba5a2" d="M52.73 141.52s-3.15-.1-5.05 1.2h-.28s-2.03.97-2.82 5.18c-.8 4.22 3.06 8.02 4.68 8.3 1.62.28 1.06-.23 2.73.55 1.66.8 2.8-.23 2.8-.23s.06-.55-.65-.55l-.25-.17-.26-.4h-.3l-.14-.42s-.7-.65-.96-2.06l-.34-2.25-.03-.4c-.27 0-.47-3.55-.36-4.34 0 0-.2-1.3-.02-1.83l.17-.68.15-.66.3-.48.32-.45.17.03z"></path>
            </g>
            <g>
                <path fill="#2ba5a2" d="M58.95 142.08s2.2.68 3.87 2.15h.2s3.35 2.18.67 8.1c0 0-2.13 3.96-5.8 4.35 0 0-.54-.08-.77-.17 0 0-1.1-.15-1.76.18l.45-.5.1-.62.82-.5.06-.88.17-.2.1-.23.5-.45v-.4l.24-.67.3-.05c.2.02 1.54-3.5 1.23-4.63l-.06-.54-.05-1.12-.02-.4.08-.84-.17-.27.14-.83-.34-.6-.15-.5z"></path>
            </g>
            <g>
                <path fill="#bcc9c9" d="M34.67 63.66c.8.55 1.57 1.07 2.38 1.56.4.26.8.5 1.2.74.4.25.8.48 1.22.72 1.63.94 3.3 1.8 4.96 2.67.84.4 1.68.84 2.53 1.23.43.2.85.42 1.28.6.44.2.87.4 1.3.6.2.1.42.2.63.3l.65.28 1.3.58c.86.4 1.73.76 2.6 1.2-.95-.18-1.88-.4-2.8-.64-.92-.27-1.84-.5-2.74-.84-.9-.32-1.8-.65-2.68-1.03-.44-.2-.88-.36-1.3-.57l-1.3-.63c-1.72-.87-3.37-1.84-4.94-2.95-.78-.56-1.54-1.15-2.26-1.78-.72-.63-1.42-1.3-2.02-2.04"></path>
            </g>
            <g>
                <path fill="#2ba5a2" d="M32.43 95.44c.9.18 1.82.33 2.74.46l.7.1.67.1c.47.05.93.1 1.4.15 1.82.2 3.66.33 5.5.43.92.03 1.84.1 2.76.1.46 0 .92.03 1.38.04.46 0 .93 0 1.4 0 .22 0 .45.02.68.02h2.1c.9 0 1.84 0 2.8.03-.9.22-1.84.4-2.77.57-.94.12-1.86.28-2.8.34-.94.08-1.87.14-2.8.14-.48 0-.95.03-1.4 0l-1.43-.03c-1.88-.1-3.75-.34-5.6-.7-.92-.2-1.83-.44-2.73-.73-.88-.3-1.78-.6-2.6-1.04"></path>
            </g>
            <g>
                <path fill="#2ba5a2" d="M79.4 47.55c-.74 1-1.6 1.9-2.5 2.76l-.68.64-.7.63c-.47.42-.96.8-1.44 1.2-1.94 1.55-4.02 2.94-6.17 4.2-1.1.6-2.16 1.23-3.3 1.76-.55.27-1.1.56-1.67.8-.57.26-1.14.5-1.7.75-.3.12-.58.24-.87.36-.3.1-.58.23-.87.33l-1.76.64c-1.2.4-2.37.75-3.57 1.07 1.1-.57 2.23-1.07 3.34-1.6l1.67-.83c.28-.13.56-.26.83-.4.27-.13.54-.28.8-.42.56-.27 1.1-.55 1.65-.82.55-.28 1.08-.58 1.62-.87 1.1-.56 2.15-1.2 3.22-1.78 2.1-1.24 4.16-2.54 6.2-3.92.5-.35 1-.7 1.5-1.06l.74-.53.74-.55c.97-.75 1.93-1.5 2.87-2.33"></path>
            </g>
            <g>
                <path fill="#bcc9c9" d="M68.17 118.22l-3.6 1.65c-1.17.56-2.35 1.12-3.5 1.7-.3.16-.6.3-.88.46l-.88.46c-.58.3-1.16.6-1.73.9-1.16.63-2.28 1.3-3.46 1.94.93-.94 1.95-1.8 3.05-2.56.52-.4 1.1-.73 1.66-1.1.58-.32 1.16-.65 1.75-.94 1.2-.6 2.4-1.13 3.68-1.55 1.25-.45 2.54-.8 3.87-.97"></path>
            </g>
            <g>
                <path fill="#fae101" d="M82.76 85.24c-1 .73-2.08 1.32-3.17 1.9l-.83.4-.84.38c-.56.26-1.14.48-1.7.7-2.3.92-4.66 1.62-7.06 2.18-1.2.26-2.4.53-3.62.7-.6.1-1.2.2-1.83.27-.62.07-1.23.14-1.84.2l-.9.1c-.32 0-.63.03-.93.04l-1.84.08c-1.23.02-2.46 0-3.7-.05 1.23-.22 2.44-.35 3.65-.54l1.8-.3c.3-.04.6-.1.9-.12l.9-.16c.6-.1 1.2-.2 1.8-.3.6-.1 1.18-.24 1.78-.35 1.2-.2 2.37-.5 3.55-.74 2.36-.55 4.7-1.17 7-1.88.6-.18 1.16-.36 1.74-.55l.87-.3.85-.3c1.14-.4 2.27-.85 3.4-1.35"></path>
            </g>
            <g>
                <path fill="#fae101" d="M49.9 31.9c1.3 4.6 2.17 9.3 2.9 14.02.17 1.18.33 2.36.5 3.54l.2 1.78.2 1.78c.3 2.37.48 4.75.65 7.13.26 4.77.4 9.54.45 14.3l.05 1.8c0 .6 0 1.2.02 1.8.02 1.18.03 2.37.06 3.56l.08 7.16c0 2.38.03 4.76.03 7.15 0 2.4-.03 4.78-.05 7.16l-.12 14.3c-.04 4.74 0 9.5-.06 14.28-.06 4.76-.13 9.53-.3 14.3 0 .03-.02.06-.06.06-.02 0-.04-.04-.05-.07-.24-4.76-.4-9.53-.55-14.3-.13-4.76-.24-9.52-.26-14.3 0-4.77.13-9.54.26-14.3.07-2.38.14-4.77.22-7.15.1-2.38.2-4.77.3-7.15l.1-3.56c.03-1.2.08-2.4.07-3.58-.02-2.4 0-4.78-.12-7.16l-.17-3.57L54 67.3l-.13-1.77-.16-1.78-.32-3.55c-.88-9.46-1.88-18.92-3.54-28.3 0-.04.02-.07.05-.08.03 0 .06 0 .07.04"></path>
            </g>
        </g>
        <text x="34.487" y="27.762" fill="#fff" style="-inkscape-font-specification:MuseoSlab-900" font-weight="bold" font-size="4.395" font-family="Museo Slab 900" transform="translate(1.98 .658)">
            <tspan x="34.486656 38.820145 41.382439 43.448097 46.234539 48.704544 50.497715 52.137062 55.248734" y="27.762"><a xlink:href="https://nutcrackeragency.com/new-site/marketing/">Marketing</a></tspan>
            <tspan x="70.547798 73.835281 76.621719 79.702629 81.495789 83.965797 87.046707" y="43.544"><a xlink:href="https://nutcrackeragency.com/new-site/content/">Content</a></tspan>
            <tspan x="18.853569 21.569687 24.356131 26.84811 28.487448 31.032173 32.504501" y="55.622"><a xlink:href="https://nutcrackeragency.com/new-site/social-media/">Social</a></tspan>
            <tspan x="18.563501 22.918962 25.388966 28.302862 29.9422" y="60.017"><a xlink:href="https://nutcrackeragency.com/new-site/social-media/">media</a></tspan>
            <tspan x="78.340172 81.803452 84.273453 86.510513 88.149849 91.0242" y="80.757"><a xlink:href="https://nutcrackeragency.com/new-site/design/">Design</a></tspan>
            <tspan x="22.048746 25.041754" y="94.447"><a xlink:href="https://nutcrackeragency.com/new-site/pr/">PR</a></tspan>
            <tspan x="67.321861 70.108299 72.578293 75.140594 78.054497" y="113.939"><a xlink:href="https://nutcrackeragency.com/new-site/lead-generation/">Lead</a></tspan>
            <tspan x="67.321861 70.196205 72.666191 75.77787 78.247879 80.339905 82.871437 84.664612 86.30394 89.090393" y="118.334"><a xlink:href="https://nutcrackeragency.com/new-site/lead-generation/">generation</a></tspan>
        </text>
    </g>
</svg>